<?xml version="1.0" encoding="UTF-8" standalone="no"?>
<!DOCTYPE svg PUBLIC "-//W3C//DTD SVG 1.1//EN"
 "http://www.w3.org/Graphics/SVG/1.1/DTD/svg11.dtd">
<!-- Generated by graphviz version 2.43.0 (0)
 -->
<!-- Title: G Pages: 1 -->
<svg width="504pt" height="441pt"
 viewBox="0.00 0.00 504.00 441.00" xmlns="http://www.w3.org/2000/svg" xmlns:xlink="http://www.w3.org/1999/xlink">
<g id="graph0" class="graph" transform="scale(1 1) rotate(0) translate(4 437)">
<title>G</title>
<polygon fill="white" stroke="transparent" points="-4,4 -4,-437 500,-437 500,4 -4,4"/>
<!-- mag -->
<g id="node1" class="node">
<title>mag</title>
<polygon fill="#c14953" stroke="transparent" points="192,-433 133,-433 133,-397 192,-397 192,-433"/>
<text text-anchor="middle" x="162.5" y="-411.3" font-family="Times,serif" font-size="14.00">Magma</text>
</g>
<!-- qwhat -->
<g id="node11" class="node">
<title>qwhat</title>
<text text-anchor="middle" x="67.5" y="-345.8" font-family="Times,serif" font-size="14.00" fill="#f25f5c">What is it?</text>
</g>
<!-- mag&#45;&gt;qwhat -->
<g id="edge1" class="edge">
<title>mag&#45;&gt;qwhat</title>
<path fill="none" stroke="black" d="M137.04,-396.98C123.07,-387.64 105.82,-376.11 92,-366.87"/>
<polygon fill="black" stroke="black" points="93.73,-363.83 83.48,-361.18 89.84,-369.65 93.73,-363.83"/>
</g>
<!-- qhow -->
<g id="node13" class="node">
<title>qhow</title>
<text text-anchor="middle" x="261.5" y="-212.8" font-family="Times,serif" font-size="14.00" fill="#f25f5c">How does it form?</text>
</g>
<!-- mag&#45;&gt;qhow -->
<g id="edge5" class="edge">
<title>mag&#45;&gt;qhow</title>
<path fill="none" stroke="black" d="M163.23,-396.79C165.22,-367.28 172.66,-306.14 200.5,-264 208.63,-251.69 221.14,-241.33 232.73,-233.53"/>
<polygon fill="black" stroke="black" points="234.75,-236.4 241.32,-228.08 231,-230.49 234.75,-236.4"/>
</g>
<!-- qwhere -->
<g id="node14" class="node">
<title>qwhere</title>
<text text-anchor="middle" x="323.5" y="-345.8" font-family="Times,serif" font-size="14.00" fill="#f25f5c">Where does it form?</text>
</g>
<!-- mag&#45;&gt;qwhere -->
<g id="edge13" class="edge">
<title>mag&#45;&gt;qwhere</title>
<path fill="none" stroke="black" d="M192.03,-402.35C218.83,-391.78 258.43,-376.17 287.16,-364.83"/>
<polygon fill="black" stroke="black" points="288.81,-367.94 296.83,-361.02 286.24,-361.43 288.81,-367.94"/>
</g>
<!-- def -->
<g id="node2" class="node">
<title>def</title>
<polygon fill="#c14953" stroke="transparent" points="115,-302 0,-302 0,-264 115,-264 115,-302"/>
<text text-anchor="middle" x="57.5" y="-286.8" font-family="Times,serif" font-size="14.00">Liquid rock under</text>
<text text-anchor="middle" x="57.5" y="-271.8" font-family="Times,serif" font-size="14.00">the Earth.</text>
</g>
<!-- qterm -->
<g id="node12" class="node">
<title>qterm</title>
<text text-anchor="middle" x="60.5" y="-212.8" font-family="Times,serif" font-size="14.00" fill="#f25f5c">Term?</text>
</g>
<!-- def&#45;&gt;qterm -->
<g id="edge3" class="edge">
<title>def&#45;&gt;qterm</title>
<path fill="none" stroke="black" d="M58.35,-263.69C58.72,-255.8 59.15,-246.54 59.53,-238.39"/>
<polygon fill="black" stroke="black" points="63.03,-238.34 60,-228.19 56.04,-238.02 63.03,-238.34"/>
</g>
<!-- temp -->
<g id="node3" class="node">
<title>temp</title>
<polygon fill="#c14953" stroke="transparent" points="185.5,-169 39.5,-169 39.5,-133 185.5,-133 185.5,-169"/>
<text text-anchor="middle" x="112.5" y="-147.3" font-family="Times,serif" font-size="14.00">Increasing Temperature</text>
</g>
<!-- pres -->
<g id="node4" class="node">
<title>pres</title>
<polygon fill="#c14953" stroke="transparent" points="465,-169 338,-169 338,-133 465,-133 465,-169"/>
<text text-anchor="middle" x="401.5" y="-147.3" font-family="Times,serif" font-size="14.00">Decreasing Pressure</text>
</g>
<!-- qwhy1 -->
<g id="node15" class="node">
<title>qwhy1</title>
<text text-anchor="middle" x="401.5" y="-81.8" font-family="Times,serif" font-size="14.00" fill="#f25f5c">Why?</text>
</g>
<!-- pres&#45;&gt;qwhy1 -->
<g id="edge9" class="edge">
<title>pres&#45;&gt;qwhy1</title>
<path fill="none" stroke="black" d="M401.5,-132.98C401.5,-125.12 401.5,-115.7 401.5,-107.4"/>
<polygon fill="black" stroke="black" points="405,-107.37 401.5,-97.37 398,-107.37 405,-107.37"/>
</g>
<!-- wat -->
<g id="node5" class="node">
<title>wat</title>
<polygon fill="#c14953" stroke="transparent" points="319.5,-169 203.5,-169 203.5,-133 319.5,-133 319.5,-169"/>
<text text-anchor="middle" x="261.5" y="-147.3" font-family="Times,serif" font-size="14.00">Addition of Water</text>
</g>
<!-- qwhy2 -->
<g id="node16" class="node">
<title>qwhy2</title>
<text text-anchor="middle" x="261.5" y="-81.8" font-family="Times,serif" font-size="14.00" fill="#f25f5c">Why?</text>
</g>
<!-- wat&#45;&gt;qwhy2 -->
<g id="edge11" class="edge">
<title>wat&#45;&gt;qwhy2</title>
<path fill="none" stroke="black" d="M261.5,-132.98C261.5,-125.12 261.5,-115.7 261.5,-107.4"/>
<polygon fill="black" stroke="black" points="265,-107.37 261.5,-97.37 258,-107.37 265,-107.37"/>
</g>
<!-- preswhy -->
<g id="node6" class="node">
<title>preswhy</title>
<polygon fill="#c14953" stroke="transparent" points="454.5,-38 348.5,-38 348.5,0 454.5,0 454.5,-38"/>
<text text-anchor="middle" x="401.5" y="-22.8" font-family="Times,serif" font-size="14.00">Atoms are more</text>
<text text-anchor="middle" x="401.5" y="-7.8" font-family="Times,serif" font-size="14.00">free to move.</text>
</g>
<!-- watwhy -->
<g id="node7" class="node">
<title>watwhy</title>
<polygon fill="#c14953" stroke="transparent" points="313.5,-38 209.5,-38 209.5,0 313.5,0 313.5,-38"/>
<text text-anchor="middle" x="261.5" y="-22.8" font-family="Times,serif" font-size="14.00">Water interferes</text>
<text text-anchor="middle" x="261.5" y="-7.8" font-family="Times,serif" font-size="14.00">with bonds.</text>
</g>
<!-- hot -->
<g id="node8" class="node">
<title>hot</title>
<polygon fill="#c14953" stroke="transparent" points="496,-301 425,-301 425,-265 496,-265 496,-301"/>
<text text-anchor="middle" x="460.5" y="-279.3" font-family="Times,serif" font-size="14.00">Hot Spots</text>
</g>
<!-- qhotproc -->
<g id="node17" class="node">
<title>qhotproc</title>
<text text-anchor="middle" x="458.5" y="-212.8" font-family="Times,serif" font-size="14.00" fill="#f25f5c">Process?</text>
</g>
<!-- hot&#45;&gt;qhotproc -->
<g id="edge17" class="edge">
<title>hot&#45;&gt;qhotproc</title>
<path fill="none" stroke="black" d="M459.96,-264.72C459.71,-256.62 459.41,-246.91 459.15,-238.4"/>
<polygon fill="black" stroke="black" points="462.64,-238.04 458.83,-228.16 455.64,-238.26 462.64,-238.04"/>
</g>
<!-- rift -->
<g id="node9" class="node">
<title>rift</title>
<polygon fill="#c14953" stroke="transparent" points="407,-301 338,-301 338,-265 407,-265 407,-301"/>
<text text-anchor="middle" x="372.5" y="-279.3" font-family="Times,serif" font-size="14.00">Rift Zone</text>
</g>
<!-- qriftproc -->
<g id="node18" class="node">
<title>qriftproc</title>
<text text-anchor="middle" x="373.5" y="-212.8" font-family="Times,serif" font-size="14.00" fill="#f25f5c">Process?</text>
</g>
<!-- rift&#45;&gt;qriftproc -->
<g id="edge19" class="edge">
<title>rift&#45;&gt;qriftproc</title>
<path fill="none" stroke="black" d="M372.77,-264.72C372.89,-256.62 373.04,-246.91 373.18,-238.4"/>
<polygon fill="black" stroke="black" points="376.68,-238.21 373.33,-228.16 369.68,-238.1 376.68,-238.21"/>
</g>
<!-- sub -->
<g id="node10" class="node">
<title>sub</title>
<polygon fill="#c14953" stroke="transparent" points="319.5,-301 209.5,-301 209.5,-265 319.5,-265 319.5,-301"/>
<text text-anchor="middle" x="264.5" y="-279.3" font-family="Times,serif" font-size="14.00">Subduction Zone</text>
</g>
<!-- qsubproc -->
<g id="node19" class="node">
<title>qsubproc</title>
<text text-anchor="middle" x="146.5" y="-212.8" font-family="Times,serif" font-size="14.00" fill="#f25f5c">Processes?</text>
</g>
<!-- sub&#45;&gt;qsubproc -->
<g id="edge21" class="edge">
<title>sub&#45;&gt;qsubproc</title>
<path fill="none" stroke="black" d="M233.19,-264.88C215.1,-255 192.52,-242.65 174.94,-233.04"/>
<polygon fill="black" stroke="black" points="176.2,-229.75 165.75,-228.02 172.84,-235.89 176.2,-229.75"/>
</g>
<!-- qwhat&#45;&gt;def -->
<g id="edge2" class="edge">
<title>qwhat&#45;&gt;def</title>
<path fill="none" stroke="black" d="M65.85,-337.85C64.76,-330.83 63.28,-321.28 61.87,-312.18"/>
<polygon fill="black" stroke="black" points="65.32,-311.59 60.33,-302.24 58.4,-312.66 65.32,-311.59"/>
</g>
<!-- qterm&#45;&gt;mag -->
<g id="edge4" class="edge">
<title>qterm&#45;&gt;mag</title>
<path fill="none" stroke="black" d="M81.62,-228.13C95.5,-236.16 112.99,-248.46 123.5,-264 148.85,-301.48 157.72,-354.45 160.83,-386.38"/>
<polygon fill="black" stroke="black" points="157.38,-387.07 161.71,-396.74 164.35,-386.48 157.38,-387.07"/>
</g>
<!-- qhow&#45;&gt;temp -->
<g id="edge6" class="edge">
<title>qhow&#45;&gt;temp</title>
<path fill="none" stroke="black" d="M236.56,-204.87C216.21,-196.2 186.84,-183.68 161.78,-173"/>
<polygon fill="black" stroke="black" points="162.98,-169.71 152.41,-169.01 160.24,-176.15 162.98,-169.71"/>
</g>
<!-- qhow&#45;&gt;pres -->
<g id="edge7" class="edge">
<title>qhow&#45;&gt;pres</title>
<path fill="none" stroke="black" d="M284.93,-204.87C303.97,-196.24 331.41,-183.79 354.89,-173.14"/>
<polygon fill="black" stroke="black" points="356.34,-176.33 364,-169.01 353.45,-169.95 356.34,-176.33"/>
</g>
<!-- qhow&#45;&gt;wat -->
<g id="edge8" class="edge">
<title>qhow&#45;&gt;wat</title>
<path fill="none" stroke="black" d="M261.5,-204.73C261.5,-197.71 261.5,-188.21 261.5,-179.21"/>
<polygon fill="black" stroke="black" points="265,-179.06 261.5,-169.06 258,-179.06 265,-179.06"/>
</g>
<!-- qwhere&#45;&gt;hot -->
<g id="edge14" class="edge">
<title>qwhere&#45;&gt;hot</title>
<path fill="none" stroke="black" d="M345.82,-337.99C364.69,-329.11 392.33,-316.1 415.74,-305.07"/>
<polygon fill="black" stroke="black" points="417.25,-308.23 424.81,-300.8 414.27,-301.9 417.25,-308.23"/>
</g>
<!-- qwhere&#45;&gt;rift -->
<g id="edge15" class="edge">
<title>qwhere&#45;&gt;rift</title>
<path fill="none" stroke="black" d="M331.59,-337.85C337.5,-330.08 345.75,-319.21 353.3,-309.27"/>
<polygon fill="black" stroke="black" points="356.15,-311.31 359.41,-301.23 350.57,-307.07 356.15,-311.31"/>
</g>
<!-- qwhere&#45;&gt;sub -->
<g id="edge16" class="edge">
<title>qwhere&#45;&gt;sub</title>
<path fill="none" stroke="black" d="M313.76,-337.85C306.51,-329.92 296.31,-318.77 287.07,-308.68"/>
<polygon fill="black" stroke="black" points="289.59,-306.25 280.26,-301.23 284.43,-310.97 289.59,-306.25"/>
</g>
<!-- qwhy1&#45;&gt;preswhy -->
<g id="edge10" class="edge">
<title>qwhy1&#45;&gt;preswhy</title>
<path fill="none" stroke="black" d="M401.5,-73.85C401.5,-66.91 401.5,-57.49 401.5,-48.47"/>
<polygon fill="black" stroke="black" points="405,-48.24 401.5,-38.24 398,-48.24 405,-48.24"/>
</g>
<!-- qwhy2&#45;&gt;watwhy -->
<g id="edge12" class="edge">
<title>qwhy2&#45;&gt;watwhy</title>
<path fill="none" stroke="black" d="M261.5,-73.85C261.5,-66.91 261.5,-57.49 261.5,-48.47"/>
<polygon fill="black" stroke="black" points="265,-48.24 261.5,-38.24 258,-48.24 265,-48.24"/>
</g>
<!-- qhotproc&#45;&gt;pres -->
<g id="edge18" class="edge">
<title>qhotproc&#45;&gt;pres</title>
<path fill="none" stroke="black" d="M448.83,-204.73C441.91,-197.02 432.32,-186.33 423.57,-176.59"/>
<polygon fill="black" stroke="black" points="426.09,-174.16 416.81,-169.06 420.89,-178.84 426.09,-174.16"/>
</g>
<!-- qriftproc&#45;&gt;pres -->
<g id="edge20" class="edge">
<title>qriftproc&#45;&gt;pres</title>
<path fill="none" stroke="black" d="M378.25,-204.73C381.45,-197.48 385.81,-187.59 389.89,-178.34"/>
<polygon fill="black" stroke="black" points="393.15,-179.62 393.98,-169.06 386.74,-176.79 393.15,-179.62"/>
</g>
<!-- qsubproc&#45;&gt;temp -->
<g id="edge22" class="edge">
<title>qsubproc&#45;&gt;temp</title>
<path fill="none" stroke="black" d="M140.73,-204.73C136.81,-197.4 131.45,-187.38 126.44,-178.04"/>
<polygon fill="black" stroke="black" points="129.44,-176.22 121.63,-169.06 123.27,-179.52 129.44,-176.22"/>
</g>
<!-- qsubproc&#45;&gt;wat -->
<g id="edge23" class="edge">
<title>qsubproc&#45;&gt;wat</title>
<path fill="none" stroke="black" d="M165.75,-204.87C180.91,-196.5 202.58,-184.54 221.46,-174.11"/>
<polygon fill="black" stroke="black" points="223.41,-177.03 230.47,-169.13 220.03,-170.9 223.41,-177.03"/>
</g>
</g>
</svg>
