<?xml version="1.0" encoding="UTF-8" standalone="no"?>
<!DOCTYPE svg PUBLIC "-//W3C//DTD SVG 1.1//EN"
 "http://www.w3.org/Graphics/SVG/1.1/DTD/svg11.dtd">
<!-- Generated by graphviz version 2.43.0 (0)
 -->
<!-- Title: G Pages: 1 -->
<svg width="333pt" height="260pt"
 viewBox="0.00 0.00 333.00 260.00" xmlns="http://www.w3.org/2000/svg" xmlns:xlink="http://www.w3.org/1999/xlink">
<g id="graph0" class="graph" transform="scale(1 1) rotate(0) translate(4 256)">
<title>G</title>
<polygon fill="white" stroke="transparent" points="-4,4 -4,-256 329,-256 329,4 -4,4"/>
<!-- nsc -->
<g id="node1" class="node">
<title>nsc</title>
<polygon fill="#b2ebf2" stroke="transparent" points="138,-252 0,-252 0,-216 138,-216 138,-252"/>
<text text-anchor="middle" x="69" y="-230.3" font-family="Times,serif" font-size="14.00">Nervous System Cells</text>
</g>
<!-- ne -->
<g id="node2" class="node">
<title>ne</title>
<polygon fill="#b2ebf2" stroke="transparent" points="62,-180 0,-180 0,-144 62,-144 62,-180"/>
<text text-anchor="middle" x="31" y="-158.3" font-family="Times,serif" font-size="14.00">Neurons</text>
</g>
<!-- nsc&#45;&gt;ne -->
<g id="edge1" class="edge">
<title>nsc&#45;&gt;ne</title>
<path fill="none" stroke="black" d="M59.61,-215.7C55.24,-207.64 49.94,-197.89 45.1,-188.98"/>
<polygon fill="black" stroke="black" points="48.13,-187.22 40.29,-180.1 41.98,-190.56 48.13,-187.22"/>
</g>
<!-- gl -->
<g id="node3" class="node">
<title>gl</title>
<polygon fill="#b2ebf2" stroke="transparent" points="134,-180 80,-180 80,-144 134,-144 134,-180"/>
<text text-anchor="middle" x="107" y="-158.3" font-family="Times,serif" font-size="14.00">Glia</text>
</g>
<!-- nsc&#45;&gt;gl -->
<g id="edge2" class="edge">
<title>nsc&#45;&gt;gl</title>
<path fill="none" stroke="black" d="M78.39,-215.7C82.76,-207.64 88.06,-197.89 92.9,-188.98"/>
<polygon fill="black" stroke="black" points="96.02,-190.56 97.71,-180.1 89.87,-187.22 96.02,-190.56"/>
</g>
<!-- micro -->
<g id="node4" class="node">
<title>micro</title>
<polygon fill="#b2ebf2" stroke="transparent" points="97.5,-108 26.5,-108 26.5,-72 97.5,-72 97.5,-108"/>
<text text-anchor="middle" x="62" y="-86.3" font-family="Times,serif" font-size="14.00">Microglia</text>
</g>
<!-- gl&#45;&gt;micro -->
<g id="edge3" class="edge">
<title>gl&#45;&gt;micro</title>
<path fill="none" stroke="black" d="M95.88,-143.7C90.64,-135.56 84.3,-125.69 78.52,-116.7"/>
<polygon fill="black" stroke="black" points="81.35,-114.62 73,-108.1 75.46,-118.41 81.35,-114.62"/>
</g>
<!-- macro -->
<g id="node5" class="node">
<title>macro</title>
<polygon fill="#b2ebf2" stroke="transparent" points="188.5,-108 115.5,-108 115.5,-72 188.5,-72 188.5,-108"/>
<text text-anchor="middle" x="152" y="-86.3" font-family="Times,serif" font-size="14.00">Macroglia</text>
</g>
<!-- gl&#45;&gt;macro -->
<g id="edge4" class="edge">
<title>gl&#45;&gt;macro</title>
<path fill="none" stroke="black" d="M118.12,-143.7C123.36,-135.56 129.7,-125.69 135.48,-116.7"/>
<polygon fill="black" stroke="black" points="138.54,-118.41 141,-108.1 132.65,-114.62 138.54,-118.41"/>
</g>
<!-- astro -->
<g id="node6" class="node">
<title>astro</title>
<polygon fill="#b2ebf2" stroke="transparent" points="77,-36 3,-36 3,0 77,0 77,-36"/>
<text text-anchor="middle" x="40" y="-14.3" font-family="Times,serif" font-size="14.00">Astrocytes</text>
</g>
<!-- macro&#45;&gt;astro -->
<g id="edge5" class="edge">
<title>macro&#45;&gt;astro</title>
<path fill="none" stroke="black" d="M124.6,-71.88C110.09,-62.81 92.08,-51.55 76.41,-41.76"/>
<polygon fill="black" stroke="black" points="77.84,-38.52 67.5,-36.19 74.13,-44.46 77.84,-38.52"/>
</g>
<!-- oligo -->
<g id="node7" class="node">
<title>oligo</title>
<polygon fill="#b2ebf2" stroke="transparent" points="208.5,-36 95.5,-36 95.5,0 208.5,0 208.5,-36"/>
<text text-anchor="middle" x="152" y="-14.3" font-family="Times,serif" font-size="14.00">Oligodendrocytes</text>
</g>
<!-- macro&#45;&gt;oligo -->
<g id="edge6" class="edge">
<title>macro&#45;&gt;oligo</title>
<path fill="none" stroke="black" d="M152,-71.7C152,-63.98 152,-54.71 152,-46.11"/>
<polygon fill="black" stroke="black" points="155.5,-46.1 152,-36.1 148.5,-46.1 155.5,-46.1"/>
</g>
<!-- schwann -->
<g id="node8" class="node">
<title>schwann</title>
<polygon fill="#b2ebf2" stroke="transparent" points="325,-36 227,-36 227,0 325,0 325,-36"/>
<text text-anchor="middle" x="276" y="-14.3" font-family="Times,serif" font-size="14.00">Schwann Cells</text>
</g>
<!-- macro&#45;&gt;schwann -->
<g id="edge7" class="edge">
<title>macro&#45;&gt;schwann</title>
<path fill="none" stroke="black" d="M182.33,-71.88C198.7,-62.64 219.08,-51.13 236.65,-41.21"/>
<polygon fill="black" stroke="black" points="238.56,-44.15 245.55,-36.19 235.12,-38.06 238.56,-44.15"/>
</g>
</g>
</svg>
