<?xml version="1.0" encoding="UTF-8" standalone="no"?>
<!DOCTYPE svg PUBLIC "-//W3C//DTD SVG 1.1//EN"
 "http://www.w3.org/Graphics/SVG/1.1/DTD/svg11.dtd">
<!-- Generated by graphviz version 2.43.0 (0)
 -->
<!-- Title: G Pages: 1 -->
<svg width="765pt" height="370pt"
 viewBox="0.00 0.00 765.00 370.00" xmlns="http://www.w3.org/2000/svg" xmlns:xlink="http://www.w3.org/1999/xlink">
<g id="graph0" class="graph" transform="scale(1 1) rotate(0) translate(4 366)">
<title>G</title>
<polygon fill="white" stroke="transparent" points="-4,4 -4,-366 761,-366 761,4 -4,4"/>
<!-- term -->
<g id="node1" class="node">
<title>term</title>
<polygon fill="#81c784" stroke="transparent" points="367.5,-362 231.5,-362 231.5,-326 367.5,-326 367.5,-362"/>
<text text-anchor="middle" x="299.5" y="-340.3" font-family="Times,serif" font-size="14.00">Dissociation Constant</text>
</g>
<!-- qwhat -->
<g id="node9" class="node">
<title>qwhat</title>
<text text-anchor="middle" x="43.5" y="-267.3" font-family="Times,serif" font-size="14.00" fill="#1b5e20">What is it?</text>
</g>
<!-- term&#45;&gt;qwhat -->
<g id="edge1" class="edge">
<title>term&#45;&gt;qwhat</title>
<path fill="none" stroke="black" d="M231.06,-327.55C190.23,-317.84 137.54,-304.45 91.5,-290 87.65,-288.79 83.65,-287.44 79.68,-286.05"/>
<polygon fill="black" stroke="black" points="80.57,-282.65 69.98,-282.52 78.18,-289.23 80.57,-282.65"/>
</g>
<!-- qnot -->
<g id="node11" class="node">
<title>qnot</title>
<text text-anchor="middle" x="207.5" y="-267.3" font-family="Times,serif" font-size="14.00" fill="#1b5e20">Notation?</text>
</g>
<!-- term&#45;&gt;qnot -->
<g id="edge5" class="edge">
<title>term&#45;&gt;qnot</title>
<path fill="none" stroke="black" d="M277.23,-325.81C262.65,-314.56 243.69,-299.93 229.22,-288.76"/>
<polygon fill="black" stroke="black" points="231.34,-285.98 221.29,-282.64 227.06,-291.52 231.34,-285.98"/>
</g>
<!-- qrel -->
<g id="node13" class="node">
<title>qrel</title>
<text text-anchor="middle" x="410.5" y="-274.8" font-family="Times,serif" font-size="14.00" fill="#1b5e20">Relationship to</text>
<text text-anchor="middle" x="410.5" y="-259.8" font-family="Times,serif" font-size="14.00" fill="#1b5e20">binding affinity?</text>
</g>
<!-- term&#45;&gt;qrel -->
<g id="edge9" class="edge">
<title>term&#45;&gt;qrel</title>
<path fill="none" stroke="black" d="M326.09,-325.99C340.24,-316.94 357.88,-305.66 373.36,-295.75"/>
<polygon fill="black" stroke="black" points="375.65,-298.45 382.19,-290.11 371.88,-292.55 375.65,-298.45"/>
</g>
<!-- qhigh -->
<g id="node14" class="node">
<title>qhigh</title>
<text text-anchor="middle" x="520.5" y="-267.3" font-family="Times,serif" font-size="14.00" fill="#1b5e20">High K_d?</text>
</g>
<!-- term&#45;&gt;qhigh -->
<g id="edge15" class="edge">
<title>term&#45;&gt;qhigh</title>
<path fill="none" stroke="black" d="M358.24,-325.98C391.86,-316 434.73,-302.85 472.5,-290 476.08,-288.78 479.8,-287.47 483.5,-286.13"/>
<polygon fill="black" stroke="black" points="485.01,-289.31 493.19,-282.57 482.6,-282.74 485.01,-289.31"/>
</g>
<!-- qlow -->
<g id="node16" class="node">
<title>qlow</title>
<text text-anchor="middle" x="642.5" y="-267.3" font-family="Times,serif" font-size="14.00" fill="#1b5e20">Low K_d?</text>
</g>
<!-- term&#45;&gt;qlow -->
<g id="edge11" class="edge">
<title>term&#45;&gt;qlow</title>
<path fill="none" stroke="black" d="M367.67,-330.3C421.93,-320.01 499.74,-304.83 567.5,-290 576.53,-288.02 586.14,-285.81 595.37,-283.62"/>
<polygon fill="black" stroke="black" points="596.27,-287 605.18,-281.27 594.64,-280.19 596.27,-287"/>
</g>
<!-- not -->
<g id="node2" class="node">
<title>not</title>
<polygon fill="#81c784" stroke="transparent" points="238.5,-200 184.5,-200 184.5,-164 238.5,-164 238.5,-200"/>
<text text-anchor="middle" x="211.5" y="-178.3" font-family="Times,serif" font-size="14.00">K_d</text>
</g>
<!-- qstands -->
<g id="node12" class="node">
<title>qstands</title>
<text text-anchor="middle" x="299.5" y="-267.3" font-family="Times,serif" font-size="14.00" fill="#1b5e20">Stands for?</text>
</g>
<!-- not&#45;&gt;qstands -->
<g id="edge7" class="edge">
<title>not&#45;&gt;qstands</title>
<path fill="none" stroke="black" d="M228.74,-200.05C243.9,-215.03 265.88,-236.76 281.31,-252.01"/>
<polygon fill="black" stroke="black" points="279.14,-254.79 288.71,-259.33 284.06,-249.81 279.14,-254.79"/>
</g>
<!-- def -->
<g id="node3" class="node">
<title>def</title>
<polygon fill="#81c784" stroke="transparent" points="143,-216 0,-216 0,-148 143,-148 143,-216"/>
<text text-anchor="middle" x="71.5" y="-200.8" font-family="Times,serif" font-size="14.00">The drug concentration</text>
<text text-anchor="middle" x="71.5" y="-185.8" font-family="Times,serif" font-size="14.00">at which half of</text>
<text text-anchor="middle" x="71.5" y="-170.8" font-family="Times,serif" font-size="14.00">the binding sites</text>
<text text-anchor="middle" x="71.5" y="-155.8" font-family="Times,serif" font-size="14.00">are occupied.</text>
</g>
<!-- qterm -->
<g id="node10" class="node">
<title>qterm</title>
<text text-anchor="middle" x="127.5" y="-267.3" font-family="Times,serif" font-size="14.00" fill="#1b5e20">Term?</text>
</g>
<!-- def&#45;&gt;qterm -->
<g id="edge3" class="edge">
<title>def&#45;&gt;qterm</title>
<path fill="none" stroke="black" d="M92.93,-216.29C100.46,-227.99 108.66,-240.73 115.18,-250.86"/>
<polygon fill="black" stroke="black" points="112.28,-252.82 120.63,-259.33 118.16,-249.03 112.28,-252.82"/>
</g>
<!-- inv -->
<g id="node4" class="node">
<title>inv</title>
<polygon fill="#81c784" stroke="transparent" points="436.5,-201 260.5,-201 260.5,-163 436.5,-163 436.5,-201"/>
<text text-anchor="middle" x="348.5" y="-185.8" font-family="Times,serif" font-size="14.00">K_d is inversely proportional</text>
<text text-anchor="middle" x="348.5" y="-170.8" font-family="Times,serif" font-size="14.00">to binding affinity.</text>
</g>
<!-- low -->
<g id="node5" class="node">
<title>low</title>
<polygon fill="#81c784" stroke="transparent" points="743.5,-200 609.5,-200 609.5,-164 743.5,-164 743.5,-200"/>
<text text-anchor="middle" x="676.5" y="-178.3" font-family="Times,serif" font-size="14.00">High binding affinity.</text>
</g>
<!-- qlowwhy -->
<g id="node17" class="node">
<title>qlowwhy</title>
<text text-anchor="middle" x="677.5" y="-96.8" font-family="Times,serif" font-size="14.00" fill="#1b5e20">Why?</text>
</g>
<!-- low&#45;&gt;qlowwhy -->
<g id="edge13" class="edge">
<title>low&#45;&gt;qlowwhy</title>
<path fill="none" stroke="black" d="M676.72,-163.75C676.87,-151.6 677.08,-135.27 677.24,-122.38"/>
<polygon fill="black" stroke="black" points="680.74,-122.18 677.37,-112.13 673.74,-122.09 680.74,-122.18"/>
</g>
<!-- lowwhy -->
<g id="node6" class="node">
<title>lowwhy</title>
<polygon fill="#81c784" stroke="transparent" points="757,-53 602,-53 602,0 757,0 757,-53"/>
<text text-anchor="middle" x="679.5" y="-37.8" font-family="Times,serif" font-size="14.00">Because fewer molecules</text>
<text text-anchor="middle" x="679.5" y="-22.8" font-family="Times,serif" font-size="14.00">are needed to reach</text>
<text text-anchor="middle" x="679.5" y="-7.8" font-family="Times,serif" font-size="14.00">the same occupancy.</text>
</g>
<!-- high -->
<g id="node7" class="node">
<title>high</title>
<polygon fill="#81c784" stroke="transparent" points="586.5,-200 454.5,-200 454.5,-164 586.5,-164 586.5,-200"/>
<text text-anchor="middle" x="520.5" y="-178.3" font-family="Times,serif" font-size="14.00">Low binding affinity.</text>
</g>
<!-- qhighwhy -->
<g id="node15" class="node">
<title>qhighwhy</title>
<text text-anchor="middle" x="517.5" y="-96.8" font-family="Times,serif" font-size="14.00" fill="#1b5e20">Why?</text>
</g>
<!-- high&#45;&gt;qhighwhy -->
<g id="edge17" class="edge">
<title>high&#45;&gt;qhighwhy</title>
<path fill="none" stroke="black" d="M519.85,-163.75C519.39,-151.6 518.77,-135.27 518.29,-122.38"/>
<polygon fill="black" stroke="black" points="521.78,-121.99 517.9,-112.13 514.78,-122.26 521.78,-121.99"/>
</g>
<!-- highwhy -->
<g id="node8" class="node">
<title>highwhy</title>
<polygon fill="#81c784" stroke="transparent" points="584,-53 431,-53 431,0 584,0 584,-53"/>
<text text-anchor="middle" x="507.5" y="-37.8" font-family="Times,serif" font-size="14.00">Because more molecules</text>
<text text-anchor="middle" x="507.5" y="-22.8" font-family="Times,serif" font-size="14.00">are needed to reach</text>
<text text-anchor="middle" x="507.5" y="-7.8" font-family="Times,serif" font-size="14.00">the same occupancy.</text>
</g>
<!-- qwhat&#45;&gt;def -->
<g id="edge2" class="edge">
<title>qwhat&#45;&gt;def</title>
<path fill="none" stroke="black" d="M46.93,-259.33C49.65,-250.88 53.64,-238.48 57.62,-226.12"/>
<polygon fill="black" stroke="black" points="61.05,-226.89 60.78,-216.29 54.39,-224.74 61.05,-226.89"/>
</g>
<!-- qterm&#45;&gt;term -->
<g id="edge4" class="edge">
<title>qterm&#45;&gt;term</title>
<path fill="none" stroke="black" d="M147.9,-282.61C152.96,-285.12 158.39,-287.73 163.5,-290 189.26,-301.43 218.32,-312.94 242.93,-322.29"/>
<polygon fill="black" stroke="black" points="241.89,-325.64 252.48,-325.9 244.37,-319.09 241.89,-325.64"/>
</g>
<!-- qnot&#45;&gt;not -->
<g id="edge6" class="edge">
<title>qnot&#45;&gt;not</title>
<path fill="none" stroke="black" d="M207.99,-259.33C208.55,-247.2 209.48,-226.92 210.24,-210.31"/>
<polygon fill="black" stroke="black" points="213.75,-210.2 210.72,-200.05 206.76,-209.87 213.75,-210.2"/>
</g>
<!-- qstands&#45;&gt;term -->
<g id="edge8" class="edge">
<title>qstands&#45;&gt;term</title>
<path fill="none" stroke="black" d="M299.5,-282.64C299.5,-291.38 299.5,-304.15 299.5,-315.7"/>
<polygon fill="black" stroke="black" points="296,-315.81 299.5,-325.81 303,-315.81 296,-315.81"/>
</g>
<!-- qrel&#45;&gt;inv -->
<g id="edge10" class="edge">
<title>qrel&#45;&gt;inv</title>
<path fill="none" stroke="black" d="M397.65,-251.97C388.84,-239.61 377.01,-223 367.16,-209.18"/>
<polygon fill="black" stroke="black" points="369.98,-207.12 361.33,-201 364.28,-211.18 369.98,-207.12"/>
</g>
<!-- qhigh&#45;&gt;high -->
<g id="edge16" class="edge">
<title>qhigh&#45;&gt;high</title>
<path fill="none" stroke="black" d="M520.5,-259.33C520.5,-247.2 520.5,-226.92 520.5,-210.31"/>
<polygon fill="black" stroke="black" points="524,-210.05 520.5,-200.05 517,-210.05 524,-210.05"/>
</g>
<!-- qhighwhy&#45;&gt;highwhy -->
<g id="edge18" class="edge">
<title>qhighwhy&#45;&gt;highwhy</title>
<path fill="none" stroke="black" d="M516.02,-88.88C515.07,-81.98 513.76,-72.56 512.45,-63.17"/>
<polygon fill="black" stroke="black" points="515.9,-62.54 511.06,-53.11 508.97,-63.5 515.9,-62.54"/>
</g>
<!-- qlow&#45;&gt;low -->
<g id="edge12" class="edge">
<title>qlow&#45;&gt;low</title>
<path fill="none" stroke="black" d="M646.67,-259.33C651.5,-246.97 659.64,-226.14 666.2,-209.36"/>
<polygon fill="black" stroke="black" points="669.46,-210.63 669.84,-200.05 662.94,-208.09 669.46,-210.63"/>
</g>
<!-- qlowwhy&#45;&gt;lowwhy -->
<g id="edge14" class="edge">
<title>qlowwhy&#45;&gt;lowwhy</title>
<path fill="none" stroke="black" d="M677.8,-88.88C677.99,-81.98 678.25,-72.56 678.51,-63.17"/>
<polygon fill="black" stroke="black" points="682.01,-63.21 678.79,-53.11 675.01,-63.01 682.01,-63.21"/>
</g>
</g>
</svg>
