<?xml version="1.0" encoding="UTF-8" standalone="no"?>
<!DOCTYPE svg PUBLIC "-//W3C//DTD SVG 1.1//EN"
 "http://www.w3.org/Graphics/SVG/1.1/DTD/svg11.dtd">
<!-- Generated by graphviz version 2.43.0 (0)
 -->
<!-- Title: G Pages: 1 -->
<svg width="425pt" height="325pt"
 viewBox="0.00 0.00 424.50 325.00" xmlns="http://www.w3.org/2000/svg" xmlns:xlink="http://www.w3.org/1999/xlink">
<g id="graph0" class="graph" transform="scale(1 1) rotate(0) translate(4 321)">
<title>G</title>
<polygon fill="white" stroke="transparent" points="-4,4 -4,-321 420.5,-321 420.5,4 -4,4"/>
<!-- a -->
<g id="node1" class="node">
<title>a</title>
<polygon fill="#e0f2fe" stroke="transparent" points="178.5,-317 77.5,-317 77.5,-281 178.5,-281 178.5,-317"/>
<text text-anchor="middle" x="128" y="-295.3" font-family="Times,serif" font-size="14.00">Plate Boundary</text>
</g>
<!-- q1 -->
<g id="node7" class="node">
<title>q1</title>
<text text-anchor="middle" x="56" y="-229.8" font-family="Times,serif" font-size="14.00" fill="#0ea5e9">Definition?</text>
</g>
<!-- a&#45;&gt;q1 -->
<g id="edge1" class="edge">
<title>a&#45;&gt;q1</title>
<path fill="none" stroke="black" d="M108.71,-280.98C98.58,-272.05 86.19,-261.13 75.97,-252.11"/>
<polygon fill="black" stroke="black" points="78.14,-249.36 68.32,-245.37 73.51,-254.61 78.14,-249.36"/>
</g>
<!-- q3 -->
<g id="node9" class="node">
<title>q3</title>
<text text-anchor="middle" x="190" y="-229.8" font-family="Times,serif" font-size="14.00" fill="#0ea5e9">Types?</text>
</g>
<!-- a&#45;&gt;q3 -->
<g id="edge5" class="edge">
<title>a&#45;&gt;q3</title>
<path fill="none" stroke="black" d="M144.61,-280.98C153.16,-272.23 163.58,-261.56 172.28,-252.65"/>
<polygon fill="black" stroke="black" points="174.91,-254.97 179.39,-245.37 169.9,-250.08 174.91,-254.97"/>
</g>
<!-- b -->
<g id="node2" class="node">
<title>b</title>
<polygon fill="#e0f2fe" stroke="transparent" points="100,-178.5 0,-178.5 0,-140.5 100,-140.5 100,-178.5"/>
<text text-anchor="middle" x="50" y="-163.3" font-family="Times,serif" font-size="14.00">Where tectonic</text>
<text text-anchor="middle" x="50" y="-148.3" font-family="Times,serif" font-size="14.00">plates meet.</text>
</g>
<!-- q2 -->
<g id="node8" class="node">
<title>q2</title>
<text text-anchor="middle" x="50" y="-81.8" font-family="Times,serif" font-size="14.00" fill="#0ea5e9">Term?</text>
</g>
<!-- b&#45;&gt;q2 -->
<g id="edge3" class="edge">
<title>b&#45;&gt;q2</title>
<path fill="none" stroke="black" d="M50,-140.33C50,-130.3 50,-117.79 50,-107.36"/>
<polygon fill="black" stroke="black" points="53.5,-107.07 50,-97.07 46.5,-107.07 53.5,-107.07"/>
</g>
<!-- c -->
<g id="node3" class="node">
<title>c</title>
<polygon fill="#e0f2fe" stroke="transparent" points="257,-186 177,-186 177,-133 257,-133 257,-186"/>
<text text-anchor="middle" x="217" y="-170.8" font-family="Times,serif" font-size="14.00">Convergent</text>
<text text-anchor="middle" x="217" y="-155.8" font-family="Times,serif" font-size="14.00">Divergent</text>
<text text-anchor="middle" x="217" y="-140.8" font-family="Times,serif" font-size="14.00">Transform</text>
</g>
<!-- q4 -->
<g id="node10" class="node">
<title>q4</title>
<text text-anchor="middle" x="138" y="-81.8" font-family="Times,serif" font-size="14.00" fill="#0ea5e9">Convergent?</text>
</g>
<!-- c&#45;&gt;q4 -->
<g id="edge7" class="edge">
<title>c&#45;&gt;q4</title>
<path fill="none" stroke="black" d="M188.93,-132.91C178.39,-123.31 166.67,-112.63 157.14,-103.94"/>
<polygon fill="black" stroke="black" points="159.46,-101.32 149.71,-97.17 154.74,-106.5 159.46,-101.32"/>
</g>
<!-- q5 -->
<g id="node11" class="node">
<title>q5</title>
<text text-anchor="middle" x="238" y="-81.8" font-family="Times,serif" font-size="14.00" fill="#0ea5e9">Divergent?</text>
</g>
<!-- c&#45;&gt;q5 -->
<g id="edge9" class="edge">
<title>c&#45;&gt;q5</title>
<path fill="none" stroke="black" d="M224.46,-132.91C226.95,-124.37 229.7,-114.97 232.06,-106.88"/>
<polygon fill="black" stroke="black" points="235.45,-107.75 234.89,-97.17 228.73,-105.79 235.45,-107.75"/>
</g>
<!-- q6 -->
<g id="node12" class="node">
<title>q6</title>
<text text-anchor="middle" x="351" y="-81.8" font-family="Times,serif" font-size="14.00" fill="#0ea5e9">Transform?</text>
</g>
<!-- c&#45;&gt;q6 -->
<g id="edge11" class="edge">
<title>c&#45;&gt;q6</title>
<path fill="none" stroke="black" d="M257.2,-136.9C278.18,-125.63 303.34,-112.11 322.32,-101.91"/>
<polygon fill="black" stroke="black" points="324.21,-104.87 331.37,-97.05 320.9,-98.7 324.21,-104.87"/>
</g>
<!-- d -->
<g id="node4" class="node">
<title>d</title>
<polygon fill="#e0f2fe" stroke="transparent" points="161,-37 27,-37 27,-1 161,-1 161,-37"/>
<text text-anchor="middle" x="94" y="-15.3" font-family="Times,serif" font-size="14.00">Plates come together.</text>
</g>
<!-- e -->
<g id="node5" class="node">
<title>e</title>
<polygon fill="#e0f2fe" stroke="transparent" points="297,-37 179,-37 179,-1 297,-1 297,-37"/>
<text text-anchor="middle" x="238" y="-15.3" font-family="Times,serif" font-size="14.00">Plates move apart.</text>
</g>
<!-- f -->
<g id="node6" class="node">
<title>f</title>
<polygon fill="#e0f2fe" stroke="transparent" points="416.5,-38 315.5,-38 315.5,0 416.5,0 416.5,-38"/>
<text text-anchor="middle" x="366" y="-22.8" font-family="Times,serif" font-size="14.00">Plates slide</text>
<text text-anchor="middle" x="366" y="-7.8" font-family="Times,serif" font-size="14.00">past each other.</text>
</g>
<!-- q1&#45;&gt;b -->
<g id="edge2" class="edge">
<title>q1&#45;&gt;b</title>
<path fill="none" stroke="black" d="M55.11,-221.88C54.39,-213.19 53.33,-200.5 52.37,-188.9"/>
<polygon fill="black" stroke="black" points="55.84,-188.39 51.52,-178.71 48.86,-188.97 55.84,-188.39"/>
</g>
<!-- q2&#45;&gt;a -->
<g id="edge4" class="edge">
<title>q2&#45;&gt;a</title>
<path fill="none" stroke="black" d="M70.46,-97.01C83.77,-105 100.23,-117.28 109,-133 133.22,-176.4 133.44,-236.15 131,-270.56"/>
<polygon fill="black" stroke="black" points="127.49,-270.53 130.14,-280.79 134.46,-271.12 127.49,-270.53"/>
</g>
<!-- q3&#45;&gt;c -->
<g id="edge6" class="edge">
<title>q3&#45;&gt;c</title>
<path fill="none" stroke="black" d="M193.98,-221.88C196.62,-214.84 200.25,-205.16 203.85,-195.57"/>
<polygon fill="black" stroke="black" points="207.16,-196.7 207.4,-186.11 200.61,-194.25 207.16,-196.7"/>
</g>
<!-- q4&#45;&gt;d -->
<g id="edge8" class="edge">
<title>q4&#45;&gt;d</title>
<path fill="none" stroke="black" d="M130.73,-73.85C125.49,-66.16 118.17,-55.43 111.44,-45.57"/>
<polygon fill="black" stroke="black" points="114.28,-43.52 105.75,-37.23 108.5,-47.46 114.28,-43.52"/>
</g>
<!-- q5&#45;&gt;e -->
<g id="edge10" class="edge">
<title>q5&#45;&gt;e</title>
<path fill="none" stroke="black" d="M238,-73.85C238,-66.62 238,-56.72 238,-47.37"/>
<polygon fill="black" stroke="black" points="241.5,-47.23 238,-37.23 234.5,-47.23 241.5,-47.23"/>
</g>
<!-- q6&#45;&gt;f -->
<g id="edge12" class="edge">
<title>q6&#45;&gt;f</title>
<path fill="none" stroke="black" d="M353.48,-73.85C355.11,-66.83 357.33,-57.28 359.45,-48.18"/>
<polygon fill="black" stroke="black" points="362.9,-48.78 361.76,-38.24 356.08,-47.19 362.9,-48.78"/>
</g>
</g>
</svg>
