<?xml version="1.0" encoding="UTF-8" standalone="no"?>
<!DOCTYPE svg PUBLIC "-//W3C//DTD SVG 1.1//EN"
 "http://www.w3.org/Graphics/SVG/1.1/DTD/svg11.dtd">
<!-- Generated by graphviz version 2.43.0 (0)
 -->
<!-- Title: G Pages: 1 -->
<svg width="485pt" height="236pt"
 viewBox="0.00 0.00 485.36 236.00" xmlns="http://www.w3.org/2000/svg" xmlns:xlink="http://www.w3.org/1999/xlink">
<g id="graph0" class="graph" transform="scale(1 1) rotate(0) translate(4 232)">
<title>G</title>
<polygon fill="white" stroke="transparent" points="-4,4 -4,-232 481.36,-232 481.36,4 -4,4"/>
<!-- rat -->
<g id="node1" class="node">
<title>rat</title>
<polygon fill="#ffe0b2" stroke="transparent" points="241,-228 125,-228 125,-192 241,-192 241,-228"/>
<text text-anchor="middle" x="183" y="-206.3" font-family="Times,serif" font-size="14.00">Rational Numbers</text>
</g>
<!-- qnot -->
<g id="node5" class="node">
<title>qnot</title>
<text text-anchor="middle" x="35" y="-140.8" font-family="Times,serif" font-size="14.00" fill="#ff9800">Notation?</text>
</g>
<!-- rat&#45;&gt;qnot -->
<g id="edge1" class="edge">
<title>rat&#45;&gt;qnot</title>
<path fill="none" stroke="black" d="M143.34,-191.98C120.22,-182.06 91.35,-169.68 69.23,-160.18"/>
<polygon fill="black" stroke="black" points="70.46,-156.91 59.89,-156.18 67.7,-163.34 70.46,-156.91"/>
</g>
<!-- qfor -->
<g id="node7" class="node">
<title>qfor</title>
<text text-anchor="middle" x="231" y="-140.8" font-family="Times,serif" font-size="14.00" fill="#ff9800">Formal definition?</text>
</g>
<!-- rat&#45;&gt;qfor -->
<g id="edge5" class="edge">
<title>rat&#45;&gt;qfor</title>
<path fill="none" stroke="black" d="M195.86,-191.98C202.28,-183.5 210.06,-173.21 216.66,-164.47"/>
<polygon fill="black" stroke="black" points="219.55,-166.46 222.78,-156.37 213.96,-162.24 219.55,-166.46"/>
</g>
<!-- qinf -->
<g id="node8" class="node">
<title>qinf</title>
<text text-anchor="middle" x="386" y="-140.8" font-family="Times,serif" font-size="14.00" fill="#ff9800">Informal informal?</text>
</g>
<!-- rat&#45;&gt;qinf -->
<g id="edge7" class="edge">
<title>rat&#45;&gt;qinf</title>
<path fill="none" stroke="black" d="M237.4,-191.98C270.36,-181.67 311.83,-168.7 342.58,-159.08"/>
<polygon fill="black" stroke="black" points="343.66,-162.41 352.16,-156.08 341.57,-155.73 343.66,-162.41"/>
</g>
<!-- not -->
<g id="node2" class="node">
<title>not</title>
<polygon fill="#ffe0b2" stroke="transparent" points="66,-96 12,-96 12,-60 66,-60 66,-96"/>
<text text-anchor="middle" x="39" y="-74.3" font-family="Times,serif" font-size="14.00">Q</text>
</g>
<!-- qstand -->
<g id="node6" class="node">
<title>qstand</title>
<text text-anchor="middle" x="71" y="-7.8" font-family="Times,serif" font-size="14.00" fill="#ff9800">Stands for?</text>
</g>
<!-- not&#45;&gt;qstand -->
<g id="edge3" class="edge">
<title>not&#45;&gt;qstand</title>
<path fill="none" stroke="black" d="M47.58,-59.72C51.77,-51.26 56.84,-41.03 61.19,-32.26"/>
<polygon fill="black" stroke="black" points="64.4,-33.67 65.71,-23.16 58.13,-30.56 64.4,-33.67"/>
</g>
<!-- inf -->
<g id="node3" class="node">
<title>inf</title>
<polygon fill="#ffe0b2" stroke="transparent" points="458,-97 332,-97 332,-59 458,-59 458,-97"/>
<text text-anchor="middle" x="395" y="-81.8" font-family="Times,serif" font-size="14.00">Set of all fractions</text>
<text text-anchor="middle" x="395" y="-66.8" font-family="Times,serif" font-size="14.00">with integer p and q</text>
</g>
<!-- qterm2 -->
<g id="node10" class="node">
<title>qterm2</title>
<text text-anchor="middle" x="440" y="-7.8" font-family="Times,serif" font-size="14.00" fill="#ff9800">Term?</text>
</g>
<!-- inf&#45;&gt;qterm2 -->
<g id="edge11" class="edge">
<title>inf&#45;&gt;qterm2</title>
<path fill="none" stroke="black" d="M407.77,-58.69C413.71,-50.18 420.77,-40.06 426.77,-31.46"/>
<polygon fill="black" stroke="black" points="429.69,-33.4 432.54,-23.19 423.95,-29.39 429.69,-33.4"/>
</g>
<!-- for -->
<g id="node4" class="node">
<title>for</title>
<polygon fill="#ffe0b2" stroke="transparent" points="314,-96 164,-96 164,-60 314,-60 314,-96"/>
<text text-anchor="middle" x="239" y="-74.3" font-family="Times,serif" font-size="14.00">{ p/q | p,q in Z, q != 0 }</text>
</g>
<!-- qterm1 -->
<g id="node9" class="node">
<title>qterm1</title>
<text text-anchor="middle" x="211" y="-7.8" font-family="Times,serif" font-size="14.00" fill="#ff9800">Term?</text>
</g>
<!-- for&#45;&gt;qterm1 -->
<g id="edge9" class="edge">
<title>for&#45;&gt;qterm1</title>
<path fill="none" stroke="black" d="M231.5,-59.72C227.86,-51.35 223.48,-41.25 219.7,-32.55"/>
<polygon fill="black" stroke="black" points="222.82,-30.93 215.63,-23.16 216.4,-33.72 222.82,-30.93"/>
</g>
<!-- qnot&#45;&gt;not -->
<g id="edge2" class="edge">
<title>qnot&#45;&gt;not</title>
<path fill="none" stroke="black" d="M35.66,-132.85C36.11,-125.62 36.72,-115.72 37.3,-106.37"/>
<polygon fill="black" stroke="black" points="40.81,-106.43 37.93,-96.23 33.82,-105.99 40.81,-106.43"/>
</g>
<!-- qstand&#45;&gt;rat -->
<g id="edge4" class="edge">
<title>qstand&#45;&gt;rat</title>
<path fill="none" stroke="black" d="M76.14,-23.16C87.89,-47.28 117.92,-107.69 147,-156 152.45,-165.05 158.81,-174.69 164.66,-183.22"/>
<polygon fill="black" stroke="black" points="161.93,-185.43 170.51,-191.65 167.68,-181.44 161.93,-185.43"/>
</g>
<!-- qfor&#45;&gt;for -->
<g id="edge6" class="edge">
<title>qfor&#45;&gt;for</title>
<path fill="none" stroke="black" d="M232.32,-132.85C233.22,-125.62 234.45,-115.72 235.61,-106.37"/>
<polygon fill="black" stroke="black" points="239.11,-106.58 236.86,-96.23 232.16,-105.72 239.11,-106.58"/>
</g>
<!-- qinf&#45;&gt;inf -->
<g id="edge8" class="edge">
<title>qinf&#45;&gt;inf</title>
<path fill="none" stroke="black" d="M387.49,-132.85C388.47,-125.83 389.8,-116.28 391.07,-107.18"/>
<polygon fill="black" stroke="black" points="394.54,-107.63 392.45,-97.24 387.61,-106.66 394.54,-107.63"/>
</g>
<!-- qterm1&#45;&gt;rat -->
<g id="edge10" class="edge">
<title>qterm1&#45;&gt;rat</title>
<path fill="none" stroke="black" d="M190.72,-23.14C177.88,-31.11 162.36,-43.33 155,-59 136,-99.46 154.21,-151.75 168.84,-182.7"/>
<polygon fill="black" stroke="black" points="165.84,-184.54 173.41,-191.96 172.12,-181.44 165.84,-184.54"/>
</g>
<!-- qterm2&#45;&gt;rat -->
<g id="edge12" class="edge">
<title>qterm2&#45;&gt;rat</title>
<path fill="none" stroke="black" d="M448.44,-23.22C454.94,-32.2 463.41,-45.66 467,-59 478.28,-100.9 486.57,-125.21 456,-156 427.96,-184.25 322.78,-198.1 251.47,-204.37"/>
<polygon fill="black" stroke="black" points="250.87,-200.91 241.21,-205.25 251.47,-207.89 250.87,-200.91"/>
</g>
</g>
</svg>
