<?xml version="1.0" encoding="UTF-8" standalone="no"?>
<!DOCTYPE svg PUBLIC "-//W3C//DTD SVG 1.1//EN"
 "http://www.w3.org/Graphics/SVG/1.1/DTD/svg11.dtd">
<!-- Generated by graphviz version 2.43.0 (0)
 -->
<!-- Title: G Pages: 1 -->
<svg width="522pt" height="308pt"
 viewBox="0.00 0.00 522.36 308.00" xmlns="http://www.w3.org/2000/svg" xmlns:xlink="http://www.w3.org/1999/xlink">
<g id="graph0" class="graph" transform="scale(1 1) rotate(0) translate(4 304)">
<title>G</title>
<polygon fill="white" stroke="transparent" points="-4,4 -4,-304 518.36,-304 518.36,4 -4,4"/>
<!-- rat -->
<g id="node1" class="node">
<title>rat</title>
<polygon fill="#ffe0b2" stroke="transparent" points="278,-300 162,-300 162,-264 278,-264 278,-300"/>
<text text-anchor="middle" x="220" y="-278.3" font-family="Times,serif" font-size="14.00">Rational Numbers</text>
</g>
<!-- qnot -->
<g id="node6" class="node">
<title>qnot</title>
<text text-anchor="middle" x="72" y="-212.8" font-family="Times,serif" font-size="14.00" fill="#ff9800">Notation?</text>
</g>
<!-- rat&#45;&gt;qnot -->
<g id="edge1" class="edge">
<title>rat&#45;&gt;qnot</title>
<path fill="none" stroke="black" d="M180.34,-263.98C157.22,-254.06 128.35,-241.68 106.23,-232.18"/>
<polygon fill="black" stroke="black" points="107.46,-228.91 96.89,-228.18 104.7,-235.34 107.46,-228.91"/>
</g>
<!-- qfor -->
<g id="node8" class="node">
<title>qfor</title>
<text text-anchor="middle" x="268" y="-212.8" font-family="Times,serif" font-size="14.00" fill="#ff9800">Formal definition?</text>
</g>
<!-- rat&#45;&gt;qfor -->
<g id="edge5" class="edge">
<title>rat&#45;&gt;qfor</title>
<path fill="none" stroke="black" d="M232.86,-263.98C239.28,-255.5 247.06,-245.21 253.66,-236.47"/>
<polygon fill="black" stroke="black" points="256.55,-238.46 259.78,-228.37 250.96,-234.24 256.55,-238.46"/>
</g>
<!-- qinf -->
<g id="node9" class="node">
<title>qinf</title>
<text text-anchor="middle" x="423" y="-212.8" font-family="Times,serif" font-size="14.00" fill="#ff9800">Informal informal?</text>
</g>
<!-- rat&#45;&gt;qinf -->
<g id="edge7" class="edge">
<title>rat&#45;&gt;qinf</title>
<path fill="none" stroke="black" d="M274.4,-263.98C307.36,-253.67 348.83,-240.7 379.58,-231.08"/>
<polygon fill="black" stroke="black" points="380.66,-234.41 389.16,-228.08 378.57,-227.73 380.66,-234.41"/>
</g>
<!-- not -->
<g id="node2" class="node">
<title>not</title>
<polygon fill="#ffe0b2" stroke="transparent" points="99,-168 45,-168 45,-132 99,-132 99,-168"/>
<text text-anchor="middle" x="72" y="-146.3" font-family="Times,serif" font-size="14.00">Q</text>
</g>
<!-- qstand -->
<g id="node7" class="node">
<title>qstand</title>
<text text-anchor="middle" x="135" y="-79.8" font-family="Times,serif" font-size="14.00" fill="#ff9800">Stands for?</text>
</g>
<!-- not&#45;&gt;qstand -->
<g id="edge3" class="edge">
<title>not&#45;&gt;qstand</title>
<path fill="none" stroke="black" d="M88.88,-131.72C97.77,-122.62 108.64,-111.48 117.6,-102.31"/>
<polygon fill="black" stroke="black" points="120.11,-104.75 124.59,-95.16 115.1,-99.86 120.11,-104.75"/>
</g>
<!-- qstands -->
<g id="node12" class="node">
<title>qstands</title>
<text text-anchor="middle" x="39" y="-79.8" font-family="Times,serif" font-size="14.00" fill="#ff9800">Stands for?</text>
</g>
<!-- not&#45;&gt;qstands -->
<g id="edge13" class="edge">
<title>not&#45;&gt;qstands</title>
<path fill="none" stroke="black" d="M63.16,-131.72C58.83,-123.26 53.6,-113.03 49.11,-104.26"/>
<polygon fill="black" stroke="black" points="52.12,-102.46 44.45,-95.16 45.89,-105.65 52.12,-102.46"/>
</g>
<!-- inf -->
<g id="node3" class="node">
<title>inf</title>
<polygon fill="#ffe0b2" stroke="transparent" points="495,-169 369,-169 369,-131 495,-131 495,-169"/>
<text text-anchor="middle" x="432" y="-153.8" font-family="Times,serif" font-size="14.00">Set of all fractions</text>
<text text-anchor="middle" x="432" y="-138.8" font-family="Times,serif" font-size="14.00">with integer p and q</text>
</g>
<!-- qterm2 -->
<g id="node11" class="node">
<title>qterm2</title>
<text text-anchor="middle" x="477" y="-79.8" font-family="Times,serif" font-size="14.00" fill="#ff9800">Term?</text>
</g>
<!-- inf&#45;&gt;qterm2 -->
<g id="edge11" class="edge">
<title>inf&#45;&gt;qterm2</title>
<path fill="none" stroke="black" d="M444.77,-130.69C450.71,-122.18 457.77,-112.06 463.77,-103.46"/>
<polygon fill="black" stroke="black" points="466.69,-105.4 469.54,-95.19 460.95,-101.39 466.69,-105.4"/>
</g>
<!-- for -->
<g id="node4" class="node">
<title>for</title>
<polygon fill="#ffe0b2" stroke="transparent" points="351,-168 201,-168 201,-132 351,-132 351,-168"/>
<text text-anchor="middle" x="276" y="-146.3" font-family="Times,serif" font-size="14.00">{ p/q | p,q in Z, q != 0 }</text>
</g>
<!-- qterm1 -->
<g id="node10" class="node">
<title>qterm1</title>
<text text-anchor="middle" x="248" y="-79.8" font-family="Times,serif" font-size="14.00" fill="#ff9800">Term?</text>
</g>
<!-- for&#45;&gt;qterm1 -->
<g id="edge9" class="edge">
<title>for&#45;&gt;qterm1</title>
<path fill="none" stroke="black" d="M268.5,-131.72C264.86,-123.35 260.48,-113.25 256.7,-104.55"/>
<polygon fill="black" stroke="black" points="259.82,-102.93 252.63,-95.16 253.4,-105.72 259.82,-102.93"/>
</g>
<!-- quot -->
<g id="node5" class="node">
<title>quot</title>
<polygon fill="#ffe0b2" stroke="transparent" points="71,-36 7,-36 7,0 71,0 71,-36"/>
<text text-anchor="middle" x="39" y="-14.3" font-family="Times,serif" font-size="14.00">Quotient</text>
</g>
<!-- qnot&#45;&gt;not -->
<g id="edge2" class="edge">
<title>qnot&#45;&gt;not</title>
<path fill="none" stroke="black" d="M72,-204.85C72,-197.62 72,-187.72 72,-178.37"/>
<polygon fill="black" stroke="black" points="75.5,-178.23 72,-168.23 68.5,-178.23 75.5,-178.23"/>
</g>
<!-- qstand&#45;&gt;rat -->
<g id="edge4" class="edge">
<title>qstand&#45;&gt;rat</title>
<path fill="none" stroke="black" d="M137.63,-95.33C143.81,-119.8 160.49,-180.89 184,-228 188.64,-237.31 194.7,-246.89 200.52,-255.3"/>
<polygon fill="black" stroke="black" points="197.76,-257.47 206.42,-263.58 203.46,-253.41 197.76,-257.47"/>
</g>
<!-- qfor&#45;&gt;for -->
<g id="edge6" class="edge">
<title>qfor&#45;&gt;for</title>
<path fill="none" stroke="black" d="M269.32,-204.85C270.22,-197.62 271.45,-187.72 272.61,-178.37"/>
<polygon fill="black" stroke="black" points="276.11,-178.58 273.86,-168.23 269.16,-177.72 276.11,-178.58"/>
</g>
<!-- qinf&#45;&gt;inf -->
<g id="edge8" class="edge">
<title>qinf&#45;&gt;inf</title>
<path fill="none" stroke="black" d="M424.49,-204.85C425.47,-197.83 426.8,-188.28 428.07,-179.18"/>
<polygon fill="black" stroke="black" points="431.54,-179.63 429.45,-169.24 424.61,-178.66 431.54,-179.63"/>
</g>
<!-- qterm1&#45;&gt;rat -->
<g id="edge10" class="edge">
<title>qterm1&#45;&gt;rat</title>
<path fill="none" stroke="black" d="M227.72,-95.14C214.88,-103.11 199.36,-115.33 192,-131 173,-171.46 191.21,-223.75 205.84,-254.7"/>
<polygon fill="black" stroke="black" points="202.84,-256.54 210.41,-263.96 209.12,-253.44 202.84,-256.54"/>
</g>
<!-- qterm2&#45;&gt;rat -->
<g id="edge12" class="edge">
<title>qterm2&#45;&gt;rat</title>
<path fill="none" stroke="black" d="M485.44,-95.22C491.94,-104.2 500.41,-117.66 504,-131 515.28,-172.9 523.57,-197.21 493,-228 464.96,-256.25 359.78,-270.1 288.47,-276.37"/>
<polygon fill="black" stroke="black" points="287.87,-272.91 278.21,-277.25 288.47,-279.89 287.87,-272.91"/>
</g>
<!-- qstands&#45;&gt;quot -->
<g id="edge14" class="edge">
<title>qstands&#45;&gt;quot</title>
<path fill="none" stroke="black" d="M39,-71.73C39,-64.71 39,-55.21 39,-46.21"/>
<polygon fill="black" stroke="black" points="42.5,-46.06 39,-36.06 35.5,-46.06 42.5,-46.06"/>
</g>
</g>
</svg>
