<?xml version="1.0" encoding="UTF-8" standalone="no"?>
<!DOCTYPE svg PUBLIC "-//W3C//DTD SVG 1.1//EN"
 "http://www.w3.org/Graphics/SVG/1.1/DTD/svg11.dtd">
<!-- Generated by graphviz version 2.43.0 (0)
 -->
<!-- Title: G Pages: 1 -->
<svg width="434pt" height="70pt"
 viewBox="0.00 0.00 434.00 70.00" xmlns="http://www.w3.org/2000/svg" xmlns:xlink="http://www.w3.org/1999/xlink">
<g id="graph0" class="graph" transform="scale(1 1) rotate(0) translate(4 66)">
<title>G</title>
<polygon fill="white" stroke="transparent" points="-4,4 -4,-66 430,-66 430,4 -4,4"/>
<!-- rat -->
<g id="node1" class="node">
<title>rat</title>
<polygon fill="#ffe0b2" stroke="transparent" points="116,-36 0,-36 0,0 116,0 116,-36"/>
<text text-anchor="middle" x="58" y="-14.3" font-family="Times,serif" font-size="14.00">Rational Numbers</text>
</g>
<!-- qnot -->
<g id="node3" class="node">
<title>qnot</title>
<text text-anchor="middle" x="187" y="-37.3" font-family="Times,serif" font-size="14.00" fill="#ff9800">Notation?</text>
</g>
<!-- rat&#45;&gt;qnot -->
<g id="edge1" class="edge">
<title>rat&#45;&gt;qnot</title>
<path fill="none" stroke="black" d="M116.18,-28.36C124.7,-29.9 133.37,-31.47 141.58,-32.95"/>
<polygon fill="black" stroke="black" points="141.2,-36.44 151.67,-34.78 142.45,-29.56 141.2,-36.44"/>
</g>
<!-- not -->
<g id="node2" class="node">
<title>not</title>
<polygon fill="#ffe0b2" stroke="transparent" points="312,-62 258,-62 258,-26 312,-26 312,-62"/>
<text text-anchor="middle" x="285" y="-40.3" font-family="Times,serif" font-size="14.00">Q</text>
</g>
<!-- qstand -->
<g id="node4" class="node">
<title>qstand</title>
<text text-anchor="middle" x="387" y="-17.3" font-family="Times,serif" font-size="14.00" fill="#ff9800">Stands for?</text>
</g>
<!-- not&#45;&gt;qstand -->
<g id="edge3" class="edge">
<title>not&#45;&gt;qstand</title>
<path fill="none" stroke="black" d="M312.01,-38.02C319.92,-36.2 328.87,-34.14 337.75,-32.1"/>
<polygon fill="black" stroke="black" points="338.72,-35.47 347.68,-29.81 337.15,-28.64 338.72,-35.47"/>
</g>
<!-- qnot&#45;&gt;not -->
<g id="edge2" class="edge">
<title>qnot&#45;&gt;not</title>
<path fill="none" stroke="black" d="M222.12,-42.07C230.38,-42.32 239.24,-42.6 247.6,-42.86"/>
<polygon fill="black" stroke="black" points="247.74,-46.37 257.84,-43.18 247.96,-39.37 247.74,-46.37"/>
</g>
<!-- qstand&#45;&gt;rat -->
<g id="edge4" class="edge">
<title>qstand&#45;&gt;rat</title>
<path fill="none" stroke="black" d="M347.99,-18.55C336.44,-17.91 323.7,-17.32 312,-17 249.05,-15.3 177.25,-15.82 126.27,-16.6"/>
<polygon fill="black" stroke="black" points="125.98,-13.11 116.03,-16.77 126.09,-20.11 125.98,-13.11"/>
</g>
</g>
</svg>
