<?xml version="1.0" encoding="UTF-8" standalone="no"?>
<!DOCTYPE svg PUBLIC "-//W3C//DTD SVG 1.1//EN"
 "http://www.w3.org/Graphics/SVG/1.1/DTD/svg11.dtd">
<!-- Generated by graphviz version 2.43.0 (0)
 -->
<!-- Title: G Pages: 1 -->
<svg width="1182pt" height="348pt"
 viewBox="0.00 0.00 1182.00 347.50" xmlns="http://www.w3.org/2000/svg" xmlns:xlink="http://www.w3.org/1999/xlink">
<g id="graph0" class="graph" transform="scale(1 1) rotate(0) translate(4 343.5)">
<title>G</title>
<polygon fill="white" stroke="transparent" points="-4,4 -4,-343.5 1178,-343.5 1178,4 -4,4"/>
<!-- vect -->
<g id="node1" class="node">
<title>vect</title>
<polygon fill="#e0f2fe" stroke="transparent" points="88,-291 0,-291 0,-255 88,-255 88,-291"/>
<text text-anchor="middle" x="44" y="-269.3" font-family="Times,serif" font-size="14.00">Vector Space</text>
</g>
<!-- qinf -->
<g id="node13" class="node">
<title>qinf</title>
<text text-anchor="middle" x="156.5" y="-299.3" font-family="Times,serif" font-size="14.00" fill="#0ea5e9">Informal</text>
</g>
<!-- vect&#45;&gt;qinf -->
<g id="edge1" class="edge">
<title>vect&#45;&gt;qinf</title>
<path fill="none" stroke="black" d="M88.04,-284.68C96.58,-287 105.52,-289.43 114.01,-291.73"/>
<polygon fill="black" stroke="black" points="113.13,-295.12 123.7,-294.37 114.97,-288.37 113.13,-295.12"/>
</g>
<!-- qfor -->
<g id="node14" class="node">
<title>qfor</title>
<text text-anchor="middle" x="156.5" y="-249.3" font-family="Times,serif" font-size="14.00" fill="#0ea5e9">Formal</text>
</g>
<!-- vect&#45;&gt;qfor -->
<g id="edge3" class="edge">
<title>vect&#45;&gt;qfor</title>
<path fill="none" stroke="black" d="M88.04,-265.21C98.01,-263.41 108.53,-261.5 118.23,-259.75"/>
<polygon fill="black" stroke="black" points="119.15,-263.14 128.36,-257.91 117.9,-256.25 119.15,-263.14"/>
</g>
<!-- inf -->
<g id="node2" class="node">
<title>inf</title>
<polygon fill="#e0f2fe" stroke="transparent" points="388,-339.5 244,-339.5 244,-286.5 388,-286.5 388,-339.5"/>
<text text-anchor="middle" x="316" y="-324.3" font-family="Times,serif" font-size="14.00">A set whose elements,</text>
<text text-anchor="middle" x="316" y="-309.3" font-family="Times,serif" font-size="14.00">called vectors,</text>
<text text-anchor="middle" x="316" y="-294.3" font-family="Times,serif" font-size="14.00">can be added or scaled.</text>
</g>
<!-- for -->
<g id="node3" class="node">
<title>for</title>
<polygon fill="#e0f2fe" stroke="transparent" points="407,-268 225,-268 225,-200 407,-200 407,-268"/>
<text text-anchor="middle" x="316" y="-252.8" font-family="Times,serif" font-size="14.00">A vector space over a field F</text>
<text text-anchor="middle" x="316" y="-237.8" font-family="Times,serif" font-size="14.00">is a set V plus two operations:</text>
<text text-anchor="middle" x="316" y="-222.8" font-family="Times,serif" font-size="14.00">vector addition and</text>
<text text-anchor="middle" x="316" y="-207.8" font-family="Times,serif" font-size="14.00">scalar multiplication.</text>
</g>
<!-- qaddsig -->
<g id="node15" class="node">
<title>qaddsig</title>
<text text-anchor="middle" x="508.5" y="-277.3" font-family="Times,serif" font-size="14.00" fill="#0ea5e9">Signature of addition</text>
</g>
<!-- for&#45;&gt;qaddsig -->
<g id="edge5" class="edge">
<title>for&#45;&gt;qaddsig</title>
<path fill="none" stroke="black" d="M407.23,-256.26C422.16,-259.95 437.27,-263.67 451.06,-267.07"/>
<polygon fill="black" stroke="black" points="450.3,-270.49 460.85,-269.49 451.98,-263.7 450.3,-270.49"/>
</g>
<!-- qmulsig -->
<g id="node16" class="node">
<title>qmulsig</title>
<text text-anchor="middle" x="508.5" y="-230.3" font-family="Times,serif" font-size="14.00" fill="#0ea5e9">Signature of scaling</text>
</g>
<!-- for&#45;&gt;qmulsig -->
<g id="edge7" class="edge">
<title>for&#45;&gt;qmulsig</title>
<path fill="none" stroke="black" d="M407.23,-234C416.73,-234 426.3,-234 435.56,-234"/>
<polygon fill="black" stroke="black" points="435.86,-237.5 445.86,-234 435.86,-230.5 435.86,-237.5"/>
</g>
<!-- qaxioms -->
<g id="node17" class="node">
<title>qaxioms</title>
<text text-anchor="middle" x="508.5" y="-167.3" font-family="Times,serif" font-size="14.00" fill="#0ea5e9">Axioms</text>
</g>
<!-- for&#45;&gt;qaxioms -->
<g id="edge9" class="edge">
<title>for&#45;&gt;qaxioms</title>
<path fill="none" stroke="black" d="M407.23,-204.16C428.87,-197 450.87,-189.73 468.72,-183.83"/>
<polygon fill="black" stroke="black" points="470.05,-187.07 478.45,-180.61 467.85,-180.42 470.05,-187.07"/>
</g>
<!-- addsig -->
<g id="node4" class="node">
<title>addsig</title>
<polygon fill="#e0f2fe" stroke="transparent" points="733,-306 653,-306 653,-270 733,-270 733,-306"/>
<text text-anchor="middle" x="693" y="-284.3" font-family="Times,serif" font-size="14.00">V x V &#45;&gt; V</text>
</g>
<!-- mulsig -->
<g id="node5" class="node">
<title>mulsig</title>
<polygon fill="#e0f2fe" stroke="transparent" points="732,-252 654,-252 654,-216 732,-216 732,-252"/>
<text text-anchor="middle" x="693" y="-230.3" font-family="Times,serif" font-size="14.00">V x F &#45;&gt; V</text>
</g>
<!-- axioms -->
<g id="node6" class="node">
<title>axioms</title>
<polygon fill="#e0f2fe" stroke="transparent" points="776,-198 610,-198 610,-100 776,-100 776,-198"/>
<text text-anchor="middle" x="693" y="-182.8" font-family="Times,serif" font-size="14.00">Commutativity of Addition</text>
<text text-anchor="middle" x="693" y="-167.8" font-family="Times,serif" font-size="14.00">Associativity of Addition</text>
<text text-anchor="middle" x="693" y="-152.8" font-family="Times,serif" font-size="14.00">Identity of Addition</text>
<text text-anchor="middle" x="693" y="-137.8" font-family="Times,serif" font-size="14.00">Inverse of Addition</text>
<text text-anchor="middle" x="693" y="-122.8" font-family="Times,serif" font-size="14.00">Identity of Scaling</text>
<text text-anchor="middle" x="693" y="-107.8" font-family="Times,serif" font-size="14.00">Distributivity</text>
</g>
<!-- qa1 -->
<g id="node18" class="node">
<title>qa1</title>
<text text-anchor="middle" x="895" y="-275.3" font-family="Times,serif" font-size="14.00" fill="#0ea5e9">Commutativity of Addition</text>
</g>
<!-- axioms&#45;&gt;qa1 -->
<g id="edge11" class="edge">
<title>axioms&#45;&gt;qa1</title>
<path fill="none" stroke="black" d="M765.89,-198.32C769.37,-201.18 772.76,-204.08 776,-207 794.02,-223.22 792.07,-234.19 812,-248 821.1,-254.3 831.65,-259.53 842.09,-263.78"/>
<polygon fill="black" stroke="black" points="841.01,-267.11 851.6,-267.41 843.5,-260.57 841.01,-267.11"/>
</g>
<!-- qa2 -->
<g id="node19" class="node">
<title>qa2</title>
<text text-anchor="middle" x="895" y="-223.3" font-family="Times,serif" font-size="14.00" fill="#0ea5e9">Associativity of Addition</text>
</g>
<!-- axioms&#45;&gt;qa2 -->
<g id="edge13" class="edge">
<title>axioms&#45;&gt;qa2</title>
<path fill="none" stroke="black" d="M776.06,-182.82C788.08,-187.65 800.34,-192.5 812,-197 824.96,-202 839.15,-207.27 852.03,-211.97"/>
<polygon fill="black" stroke="black" points="850.98,-215.31 861.58,-215.44 853.37,-208.73 850.98,-215.31"/>
</g>
<!-- qa3 -->
<g id="node20" class="node">
<title>qa3</title>
<text text-anchor="middle" x="895" y="-172.3" font-family="Times,serif" font-size="14.00" fill="#0ea5e9">Identity of Addition</text>
</g>
<!-- axioms&#45;&gt;qa3 -->
<g id="edge15" class="edge">
<title>axioms&#45;&gt;qa3</title>
<path fill="none" stroke="black" d="M776.21,-160.1C791.45,-162.16 807.25,-164.29 822.14,-166.3"/>
<polygon fill="black" stroke="black" points="821.91,-169.8 832.29,-167.67 822.85,-162.86 821.91,-169.8"/>
</g>
<!-- qa4 -->
<g id="node21" class="node">
<title>qa4</title>
<text text-anchor="middle" x="895" y="-125.3" font-family="Times,serif" font-size="14.00" fill="#0ea5e9">Inverse of Addition</text>
</g>
<!-- axioms&#45;&gt;qa4 -->
<g id="edge17" class="edge">
<title>axioms&#45;&gt;qa4</title>
<path fill="none" stroke="black" d="M776.21,-140.78C791.88,-139.21 808.15,-137.58 823.42,-136.06"/>
<polygon fill="black" stroke="black" points="824.21,-139.5 833.81,-135.02 823.51,-132.53 824.21,-139.5"/>
</g>
<!-- qa5 -->
<g id="node22" class="node">
<title>qa5</title>
<text text-anchor="middle" x="895" y="-74.3" font-family="Times,serif" font-size="14.00" fill="#0ea5e9">Identity of Scaling</text>
</g>
<!-- axioms&#45;&gt;qa5 -->
<g id="edge19" class="edge">
<title>axioms&#45;&gt;qa5</title>
<path fill="none" stroke="black" d="M776.21,-119.81C802.19,-110.59 829.82,-100.79 851.78,-92.99"/>
<polygon fill="black" stroke="black" points="853.2,-96.2 861.45,-89.56 850.85,-89.6 853.2,-96.2"/>
</g>
<!-- qa6 -->
<g id="node23" class="node">
<title>qa6</title>
<text text-anchor="middle" x="895" y="-27.3" font-family="Times,serif" font-size="14.00" fill="#0ea5e9">Distributivity</text>
</g>
<!-- axioms&#45;&gt;qa6 -->
<g id="edge21" class="edge">
<title>axioms&#45;&gt;qa6</title>
<path fill="none" stroke="black" d="M748.51,-99.96C767.59,-84.63 789.82,-68.68 812,-57 820.92,-52.3 830.84,-48.28 840.61,-44.89"/>
<polygon fill="black" stroke="black" points="841.87,-48.16 850.28,-41.72 839.69,-41.51 841.87,-48.16"/>
</g>
<!-- a1 -->
<g id="node7" class="node">
<title>a1</title>
<polygon fill="#e0f2fe" stroke="transparent" points="1139.5,-306 1048.5,-306 1048.5,-270 1139.5,-270 1139.5,-306"/>
<text text-anchor="middle" x="1094" y="-284.3" font-family="Times,serif" font-size="14.00">u + v = v + u</text>
</g>
<!-- a2 -->
<g id="node8" class="node">
<title>a2</title>
<polygon fill="#e0f2fe" stroke="transparent" points="1174,-252 1014,-252 1014,-216 1174,-216 1174,-252"/>
<text text-anchor="middle" x="1094" y="-230.3" font-family="Times,serif" font-size="14.00">u + (v + w) = (u + v) + w</text>
</g>
<!-- a3 -->
<g id="node9" class="node">
<title>a3</title>
<polygon fill="#e0f2fe" stroke="transparent" points="1128,-198 1060,-198 1060,-162 1128,-162 1128,-198"/>
<text text-anchor="middle" x="1094" y="-176.3" font-family="Times,serif" font-size="14.00">v + 0 = 0</text>
</g>
<!-- a4 -->
<g id="node10" class="node">
<title>a4</title>
<polygon fill="#e0f2fe" stroke="transparent" points="1135,-144 1053,-144 1053,-108 1135,-108 1135,-144"/>
<text text-anchor="middle" x="1094" y="-122.3" font-family="Times,serif" font-size="14.00">v + (&#45;v) = 0</text>
</g>
<!-- a5 -->
<g id="node11" class="node">
<title>a5</title>
<polygon fill="#e0f2fe" stroke="transparent" points="1121,-90 1067,-90 1067,-54 1121,-54 1121,-90"/>
<text text-anchor="middle" x="1094" y="-68.3" font-family="Times,serif" font-size="14.00">1v = v</text>
</g>
<!-- a6 -->
<g id="node12" class="node">
<title>a6</title>
<polygon fill="#e0f2fe" stroke="transparent" points="1153.5,-36 1034.5,-36 1034.5,0 1153.5,0 1153.5,-36"/>
<text text-anchor="middle" x="1094" y="-14.3" font-family="Times,serif" font-size="14.00">(a + b)v = av + bv</text>
</g>
<!-- qinf&#45;&gt;inf -->
<g id="edge2" class="edge">
<title>qinf&#45;&gt;inf</title>
<path fill="none" stroke="black" d="M189.37,-305.02C202.28,-305.84 217.82,-306.83 233.51,-307.83"/>
<polygon fill="black" stroke="black" points="233.61,-311.34 243.81,-308.48 234.06,-304.35 233.61,-311.34"/>
</g>
<!-- qfor&#45;&gt;for -->
<g id="edge4" class="edge">
<title>qfor&#45;&gt;for</title>
<path fill="none" stroke="black" d="M184.58,-249.73C193.4,-248.67 203.77,-247.42 214.74,-246.09"/>
<polygon fill="black" stroke="black" points="215.45,-249.53 224.96,-244.86 214.61,-242.58 215.45,-249.53"/>
</g>
<!-- qaddsig&#45;&gt;addsig -->
<g id="edge6" class="edge">
<title>qaddsig&#45;&gt;addsig</title>
<path fill="none" stroke="black" d="M574.1,-283.48C596.66,-284.34 621.6,-285.3 642.71,-286.11"/>
<polygon fill="black" stroke="black" points="642.61,-289.61 652.74,-286.49 642.88,-282.61 642.61,-289.61"/>
</g>
<!-- qmulsig&#45;&gt;mulsig -->
<g id="edge8" class="edge">
<title>qmulsig&#45;&gt;mulsig</title>
<path fill="none" stroke="black" d="M571.03,-234C594.7,-234 621.37,-234 643.63,-234"/>
<polygon fill="black" stroke="black" points="643.85,-237.5 653.85,-234 643.85,-230.5 643.85,-237.5"/>
</g>
<!-- qaxioms&#45;&gt;axioms -->
<g id="edge10" class="edge">
<title>qaxioms&#45;&gt;axioms</title>
<path fill="none" stroke="black" d="M538.82,-167.47C555.6,-165.44 577.66,-162.78 599.8,-160.11"/>
<polygon fill="black" stroke="black" points="600.45,-163.56 609.96,-158.89 599.61,-156.61 600.45,-163.56"/>
</g>
<!-- qa1&#45;&gt;a1 -->
<g id="edge12" class="edge">
<title>qa1&#45;&gt;a1</title>
<path fill="none" stroke="black" d="M978.12,-282.75C998.43,-283.68 1019.7,-284.65 1038.33,-285.5"/>
<polygon fill="black" stroke="black" points="1038.24,-289 1048.39,-285.96 1038.56,-282.01 1038.24,-289"/>
</g>
<!-- qa2&#45;&gt;a2 -->
<g id="edge14" class="edge">
<title>qa2&#45;&gt;a2</title>
<path fill="none" stroke="black" d="M972.17,-229.71C982.5,-230.07 993.19,-230.45 1003.73,-230.83"/>
<polygon fill="black" stroke="black" points="1003.66,-234.33 1013.78,-231.19 1003.91,-227.33 1003.66,-234.33"/>
</g>
<!-- qa3&#45;&gt;a3 -->
<g id="edge16" class="edge">
<title>qa3&#45;&gt;a3</title>
<path fill="none" stroke="black" d="M957.52,-177.25C987.42,-177.86 1022.64,-178.57 1049.67,-179.12"/>
<polygon fill="black" stroke="black" points="1049.9,-182.63 1059.97,-179.33 1050.05,-175.63 1049.9,-182.63"/>
</g>
<!-- qa4&#45;&gt;a4 -->
<g id="edge18" class="edge">
<title>qa4&#45;&gt;a4</title>
<path fill="none" stroke="black" d="M956.18,-128.08C983.85,-127.66 1016.3,-127.17 1042.65,-126.77"/>
<polygon fill="black" stroke="black" points="1042.85,-130.26 1052.8,-126.61 1042.74,-123.27 1042.85,-130.26"/>
</g>
<!-- qa5&#45;&gt;a5 -->
<g id="edge20" class="edge">
<title>qa5&#45;&gt;a5</title>
<path fill="none" stroke="black" d="M954.04,-76.23C987.3,-75.22 1028,-73.98 1056.74,-73.1"/>
<polygon fill="black" stroke="black" points="1056.86,-76.6 1066.74,-72.8 1056.64,-69.61 1056.86,-76.6"/>
</g>
<!-- qa6&#45;&gt;a6 -->
<g id="edge22" class="edge">
<title>qa6&#45;&gt;a6</title>
<path fill="none" stroke="black" d="M939.72,-28.11C964.56,-26.48 996.2,-24.39 1024.29,-22.53"/>
<polygon fill="black" stroke="black" points="1024.7,-26.01 1034.45,-21.86 1024.24,-19.03 1024.7,-26.01"/>
</g>
</g>
</svg>
