<?xml version="1.0" standalone="no"?>
<!DOCTYPE svg PUBLIC "-//W3C//DTD SVG 20010904//EN"
 "http://www.w3.org/TR/2001/REC-SVG-20010904/DTD/svg10.dtd">
<svg version="1.0" xmlns="http://www.w3.org/2000/svg"
 width="260.000000pt" height="260.000000pt" viewBox="0 0 260.000000 260.000000"
 preserveAspectRatio="xMidYMid meet">
<metadata>
Created by potrace 1.11, written by Peter Selinger 2001-2013
</metadata>
<g transform="translate(0.000000,260.000000) scale(0.100000,-0.100000)"
fill="#000000" stroke="none">
<path d="M1132 2326 c-279 -54 -507 -194 -672 -416 -62 -83 -137 -243 -167
-355 -23 -88 -26 -119 -26 -255 0 -136 3 -167 26 -255 61 -231 204 -441 397
-585 83 -62 243 -137 355 -167 88 -23 119 -26 255 -26 136 0 167 3 255 26 112
30 272 105 355 167 193 144 336 354 397 585 23 88 26 119 26 255 0 136 -3 167
-26 255 -30 112 -105 272 -167 355 -145 194 -356 338 -585 396 -124 32 -313
41 -423 20z"/>
</g>
</svg>
