<?xml version="1.0" encoding="UTF-8" standalone="no"?>
<!DOCTYPE svg PUBLIC "-//W3C//DTD SVG 1.1//EN"
 "http://www.w3.org/Graphics/SVG/1.1/DTD/svg11.dtd">
<!-- Generated by graphviz version 7.1.0 (0)
 -->
<!-- Title: G Pages: 1 -->
<svg width="170pt" height="188pt"
 viewBox="0.00 0.00 169.50 188.00" xmlns="http://www.w3.org/2000/svg" xmlns:xlink="http://www.w3.org/1999/xlink">
<g id="graph0" class="graph" transform="scale(1 1) rotate(0) translate(4 184)">
<title>G</title>
<polygon fill="white" stroke="none" points="-4,4 -4,-184 165.5,-184 165.5,4 -4,4"/>
<!-- readref -->
<g id="node1" class="node">
<title>readref</title>
<polygon fill="lightgrey" stroke="none" points="69,-180 0,-180 0,-144 69,-144 69,-180"/>
<text text-anchor="middle" x="34.5" y="-158.3" font-family="Times,serif" font-size="14.00">readref</text>
</g>
<!-- box -->
<g id="node3" class="node">
<title>box</title>
<polygon fill="lightgrey" stroke="none" points="143.5,-108 15.5,-108 15.5,-72 143.5,-72 143.5,-108"/>
<text text-anchor="middle" x="79.5" y="-86.3" font-family="Times,serif" font-size="14.00">MaybeBox::Full</text>
</g>
<!-- readref&#45;&gt;box -->
<g id="edge1" class="edge">
<title>readref&#45;&gt;box</title>
<path fill="none" stroke="black" d="M45.39,-144.05C50.53,-136.06 56.79,-126.33 62.53,-117.4"/>
<polygon fill="black" stroke="black" points="65.43,-119.37 67.89,-109.06 59.54,-115.58 65.43,-119.37"/>
</g>
<!-- writeref -->
<g id="node2" class="node">
<title>writeref</title>
<polygon fill="lightgrey" stroke="none" points="161.5,-180 87.5,-180 87.5,-144 161.5,-144 161.5,-180"/>
<text text-anchor="middle" x="124.5" y="-158.3" font-family="Times,serif" font-size="14.00">writeref</text>
</g>
<!-- writeref&#45;&gt;box -->
<g id="edge3" class="edge">
<title>writeref&#45;&gt;box</title>
<path fill="none" stroke="black" d="M113.61,-144.05C108.47,-136.06 102.21,-126.33 96.47,-117.4"/>
<polygon fill="black" stroke="black" points="99.46,-115.58 91.11,-109.06 93.57,-119.37 99.46,-115.58"/>
</g>
<!-- str -->
<g id="node4" class="node">
<title>str</title>
<polygon fill="lightgrey" stroke="none" points="141,-36 18,-36 18,0 141,0 141,-36"/>
<text text-anchor="middle" x="79.5" y="-14.3" font-family="Times,serif" font-size="14.00">&quot;Hello, world!&quot;</text>
</g>
<!-- box&#45;&gt;str -->
<g id="edge2" class="edge">
<title>box&#45;&gt;str</title>
<path fill="none" stroke="black" d="M79.5,-72.05C79.5,-64.57 79.5,-55.58 79.5,-47.14"/>
<polygon fill="black" stroke="black" points="83,-47.3 79.5,-37.3 76,-47.3 83,-47.3"/>
</g>
</g>
</svg>
