<?xml version="1.0" encoding="UTF-8" standalone="no"?>
<!DOCTYPE svg PUBLIC "-//W3C//DTD SVG 1.1//EN"
 "http://www.w3.org/Graphics/SVG/1.1/DTD/svg11.dtd">
<!-- Generated by graphviz version 7.1.0 (0)
 -->
<!-- Title: G Pages: 1 -->
<svg width="224pt" height="188pt"
 viewBox="0.00 0.00 223.50 188.00" xmlns="http://www.w3.org/2000/svg" xmlns:xlink="http://www.w3.org/1999/xlink">
<g id="graph0" class="graph" transform="scale(1 1) rotate(0) translate(4 184)">
<title>G</title>
<polygon fill="white" stroke="none" points="-4,4 -4,-184 219.5,-184 219.5,4 -4,4"/>
<!-- readref -->
<g id="node1" class="node">
<title>readref</title>
<polygon fill="lightgrey" stroke="none" points="69,-108 0,-108 0,-72 69,-72 69,-108"/>
<text text-anchor="middle" x="34.5" y="-86.3" font-family="Times,serif" font-size="14.00">readref</text>
</g>
<!-- str -->
<g id="node4" class="node">
<title>str</title>
<polygon fill="lightgrey" stroke="none" points="154,-36 31,-36 31,0 154,0 154,-36"/>
<text text-anchor="middle" x="92.5" y="-14.3" font-family="Times,serif" font-size="14.00">&quot;Hello, world!&quot;</text>
</g>
<!-- readref&#45;&gt;str -->
<g id="edge3" class="edge">
<title>readref&#45;&gt;str</title>
<path fill="none" stroke="black" d="M48.54,-72.05C55.38,-63.8 63.75,-53.7 71.34,-44.54"/>
<polygon fill="black" stroke="black" points="73.94,-46.89 77.62,-36.95 68.55,-42.42 73.94,-46.89"/>
</g>
<!-- writeref -->
<g id="node2" class="node">
<title>writeref</title>
<polygon fill="lightgrey" stroke="none" points="188.5,-180 114.5,-180 114.5,-144 188.5,-144 188.5,-180"/>
<text text-anchor="middle" x="151.5" y="-158.3" font-family="Times,serif" font-size="14.00">writeref</text>
</g>
<!-- box -->
<g id="node3" class="node">
<title>box</title>
<polygon fill="lightgrey" stroke="none" points="215.5,-108 87.5,-108 87.5,-72 215.5,-72 215.5,-108"/>
<text text-anchor="middle" x="151.5" y="-86.3" font-family="Times,serif" font-size="14.00">MaybeBox::Full</text>
</g>
<!-- writeref&#45;&gt;box -->
<g id="edge2" class="edge">
<title>writeref&#45;&gt;box</title>
<path fill="none" stroke="black" d="M151.5,-144.05C151.5,-136.57 151.5,-127.58 151.5,-119.14"/>
<polygon fill="black" stroke="black" points="155,-119.3 151.5,-109.3 148,-119.3 155,-119.3"/>
</g>
<!-- box&#45;&gt;str -->
<g id="edge1" class="edge">
<title>box&#45;&gt;str</title>
<path fill="none" stroke="black" d="M137.22,-72.05C130.26,-63.8 121.75,-53.7 114.02,-44.54"/>
<polygon fill="black" stroke="black" points="116.75,-42.34 107.63,-36.95 111.39,-46.85 116.75,-42.34"/>
</g>
</g>
</svg>
