<?xml version="1.0" encoding="UTF-8" standalone="no"?>
<!DOCTYPE svg PUBLIC "-//W3C//DTD SVG 1.1//EN"
 "http://www.w3.org/Graphics/SVG/1.1/DTD/svg11.dtd">
<!-- Generated by graphviz version 7.1.0 (0)
 -->
<!-- Title: G Pages: 1 -->
<svg width="302pt" height="116pt"
 viewBox="0.00 0.00 302.00 116.00" xmlns="http://www.w3.org/2000/svg" xmlns:xlink="http://www.w3.org/1999/xlink">
<g id="graph0" class="graph" transform="scale(1 1) rotate(0) translate(4 112)">
<title>G</title>
<polygon fill="white" stroke="none" points="-4,4 -4,-112 298,-112 298,4 -4,4"/>
<!-- readref -->
<g id="node1" class="node">
<title>readref</title>
<polygon fill="lightgrey" stroke="none" points="98.5,-108 29.5,-108 29.5,-72 98.5,-72 98.5,-108"/>
<text text-anchor="middle" x="64" y="-86.3" font-family="Times,serif" font-size="14.00">readref</text>
</g>
<!-- garbage -->
<g id="node4" class="node">
<title>garbage</title>
<polygon fill="lightgrey" stroke="none" points="128,-36 0,-36 0,0 128,0 128,-36"/>
<text text-anchor="middle" x="64" y="-14.3" font-family="Times,serif" font-size="14.00">DEALLOCATED</text>
</g>
<!-- readref&#45;&gt;garbage -->
<g id="edge2" class="edge">
<title>readref&#45;&gt;garbage</title>
<path fill="none" stroke="black" d="M64,-72.05C64,-64.57 64,-55.58 64,-47.14"/>
<polygon fill="black" stroke="black" points="67.5,-47.3 64,-37.3 60.5,-47.3 67.5,-47.3"/>
</g>
<!-- writeref -->
<g id="node2" class="node">
<title>writeref</title>
<polygon fill="lightgrey" stroke="none" points="257,-108 183,-108 183,-72 257,-72 257,-108"/>
<text text-anchor="middle" x="220" y="-86.3" font-family="Times,serif" font-size="14.00">writeref</text>
</g>
<!-- box -->
<g id="node3" class="node">
<title>box</title>
<polygon fill="lightgrey" stroke="none" points="294,-36 146,-36 146,0 294,0 294,-36"/>
<text text-anchor="middle" x="220" y="-14.3" font-family="Times,serif" font-size="14.00">MaybeBox::Empty</text>
</g>
<!-- writeref&#45;&gt;box -->
<g id="edge1" class="edge">
<title>writeref&#45;&gt;box</title>
<path fill="none" stroke="black" d="M220,-72.05C220,-64.57 220,-55.58 220,-47.14"/>
<polygon fill="black" stroke="black" points="223.5,-47.3 220,-37.3 216.5,-47.3 223.5,-47.3"/>
</g>
</g>
</svg>
