<?xml version="1.0" encoding="UTF-8" standalone="no"?>
<!DOCTYPE svg PUBLIC "-//W3C//DTD SVG 1.1//EN"
 "http://www.w3.org/Graphics/SVG/1.1/DTD/svg11.dtd">
<!-- Generated by graphviz version 7.0.0 (0)
 -->
<!-- Title: G Pages: 1 -->
<svg width="392pt" height="479pt"
 viewBox="0.00 0.00 391.50 479.00" xmlns="http://www.w3.org/2000/svg" xmlns:xlink="http://www.w3.org/1999/xlink">
<g id="graph0" class="graph" transform="scale(1 1) rotate(0) translate(4 475)">
<title>G</title>
<polygon fill="white" stroke="none" points="-4,4 -4,-475 387.5,-475 387.5,4 -4,4"/>
<!-- root -->
<g id="node1" class="node">
<title>root</title>
<polygon fill="#caff70" stroke="none" points="183,-471 72,-471 72,-435 183,-435 183,-471"/>
<text text-anchor="middle" x="127.5" y="-449.3" font-family="Inconsolata" font-size="14.00">RootCapability</text>
</g>
<!-- fs -->
<g id="node2" class="node">
<title>fs</title>
<polygon fill="#caff70" stroke="none" points="203.5,-384 51.5,-384 51.5,-348 203.5,-348 203.5,-384"/>
<text text-anchor="middle" x="127.5" y="-362.3" font-family="Inconsolata" font-size="14.00">FileSystemCapability</text>
</g>
<!-- root&#45;&gt;fs -->
<g id="edge1" class="edge">
<title>root&#45;&gt;fs</title>
<path fill="none" stroke="black" d="M127.5,-435.21C127.5,-423.8 127.5,-408.43 127.5,-395.17"/>
<polygon fill="black" stroke="black" points="131,-395.27 127.5,-385.27 124,-395.27 131,-395.27"/>
<text text-anchor="middle" x="158" y="-405.8" font-family="Inconsolata" font-size="14.00"> &#160;acquire</text>
</g>
<!-- file -->
<g id="node3" class="node">
<title>file</title>
<polygon fill="#caff70" stroke="none" points="154.5,-210 100.5,-210 100.5,-174 154.5,-174 154.5,-210"/>
<text text-anchor="middle" x="127.5" y="-188.3" font-family="Inconsolata" font-size="14.00">File</text>
</g>
<!-- fs&#45;&gt;file -->
<g id="edge2" class="edge">
<title>fs&#45;&gt;file</title>
<path fill="none" stroke="black" d="M125.29,-348.27C123.6,-334.53 121.4,-314.54 120.5,-297 119.68,-281.02 119.68,-276.98 120.5,-261 121.18,-247.84 122.58,-233.31 123.96,-221.07"/>
<polygon fill="black" stroke="black" points="127.42,-221.57 125.12,-211.23 120.47,-220.75 127.42,-221.57"/>
<text text-anchor="middle" x="151" y="-275.3" font-family="Inconsolata" font-size="14.00"> &#160;getFile</text>
</g>
<!-- dir -->
<g id="node4" class="node">
<title>dir</title>
<polygon fill="#caff70" stroke="none" points="268,-297 191,-297 191,-261 268,-261 268,-297"/>
<text text-anchor="middle" x="229.5" y="-275.3" font-family="Inconsolata" font-size="14.00">Directory</text>
</g>
<!-- fs&#45;&gt;dir -->
<g id="edge3" class="edge">
<title>fs&#45;&gt;dir</title>
<path fill="none" stroke="black" d="M147.65,-348.21C162.88,-335.52 183.98,-317.93 200.95,-303.79"/>
<polygon fill="black" stroke="black" points="202.79,-306.82 208.23,-297.73 198.3,-301.44 202.79,-306.82"/>
<text text-anchor="middle" x="209.5" y="-318.8" font-family="Inconsolata" font-size="14.00"> getDir</text>
</g>
<!-- fileread -->
<g id="node5" class="node">
<title>fileread</title>
<polygon fill="#caff70" stroke="none" points="71,-123 0,-123 0,-87 71,-87 71,-123"/>
<text text-anchor="middle" x="35.5" y="-101.3" font-family="Inconsolata" font-size="14.00">FileRead</text>
</g>
<!-- file&#45;&gt;fileread -->
<g id="edge4" class="edge">
<title>file&#45;&gt;fileread</title>
<path fill="none" stroke="black" d="M100.78,-178.49C89.99,-172.63 77.9,-164.96 68.5,-156 61.41,-149.24 55.06,-140.68 49.88,-132.57"/>
<polygon fill="black" stroke="black" points="52.89,-130.77 44.74,-123.99 46.88,-134.37 52.89,-130.77"/>
<text text-anchor="middle" x="96" y="-144.8" font-family="Inconsolata" font-size="14.00">readOnly</text>
</g>
<!-- filewrite -->
<g id="node6" class="node">
<title>filewrite</title>
<polygon fill="#caff70" stroke="none" points="166,-123 89,-123 89,-87 166,-87 166,-123"/>
<text text-anchor="middle" x="127.5" y="-101.3" font-family="Inconsolata" font-size="14.00">FileWrite</text>
</g>
<!-- file&#45;&gt;filewrite -->
<g id="edge5" class="edge">
<title>file&#45;&gt;filewrite</title>
<path fill="none" stroke="black" d="M127.5,-174.21C127.5,-162.8 127.5,-147.43 127.5,-134.17"/>
<polygon fill="black" stroke="black" points="131,-134.27 127.5,-124.27 124,-134.27 131,-134.27"/>
<text text-anchor="middle" x="165" y="-144.8" font-family="Inconsolata" font-size="14.00"> &#160;writeOnly</text>
</g>
<!-- fileattrs -->
<g id="node7" class="node">
<title>fileattrs</title>
<polygon fill="#caff70" stroke="none" points="264,-123 187,-123 187,-87 264,-87 264,-123"/>
<text text-anchor="middle" x="225.5" y="-101.3" font-family="Inconsolata" font-size="14.00">FileAttrs</text>
</g>
<!-- file&#45;&gt;fileattrs -->
<g id="edge6" class="edge">
<title>file&#45;&gt;fileattrs</title>
<path fill="none" stroke="black" d="M154.26,-183.94C170.27,-178.55 190.06,-169.67 203.5,-156 209.72,-149.68 214.33,-141.3 217.67,-133.22"/>
<polygon fill="black" stroke="black" points="220.89,-134.62 220.98,-124.02 214.3,-132.25 220.89,-134.62"/>
<text text-anchor="middle" x="251" y="-144.8" font-family="Inconsolata" font-size="14.00"> &#160;attrsOnly</text>
</g>
<!-- dir&#45;&gt;file -->
<g id="edge10" class="edge">
<title>dir&#45;&gt;file</title>
<path fill="none" stroke="black" d="M209.35,-261.21C194.12,-248.52 173.02,-230.93 156.05,-216.79"/>
<polygon fill="black" stroke="black" points="158.7,-214.44 148.77,-210.73 154.21,-219.82 158.7,-214.44"/>
<text text-anchor="middle" x="223" y="-231.8" font-family="Inconsolata" font-size="14.00"> getDirFile</text>
</g>
<!-- dir&#45;&gt;dir -->
<g id="edge9" class="edge">
<title>dir&#45;&gt;dir</title>
<path fill="none" stroke="black" d="M267.79,-287.1C278.13,-286.67 286,-283.97 286,-279 286,-276.13 283.37,-274.01 279.15,-272.66"/>
<polygon fill="black" stroke="black" points="279.7,-269.2 269.29,-271.13 278.64,-276.12 279.7,-269.2"/>
<text text-anchor="middle" x="323.5" y="-275.3" font-family="Inconsolata" font-size="14.00"> &#160;getSubDir</text>
</g>
<!-- fileattrsr -->
<g id="node8" class="node">
<title>fileattrsr</title>
<polygon fill="#caff70" stroke="none" points="214.5,-36 110.5,-36 110.5,0 214.5,0 214.5,-36"/>
<text text-anchor="middle" x="162.5" y="-14.3" font-family="Inconsolata" font-size="14.00">FileAttrsRead</text>
</g>
<!-- fileattrs&#45;&gt;fileattrsr -->
<g id="edge7" class="edge">
<title>fileattrs&#45;&gt;fileattrsr</title>
<path fill="none" stroke="black" d="M187.09,-89.71C178.21,-84.55 169.82,-77.77 164.5,-69 160.6,-62.56 159.11,-54.76 158.85,-47.25"/>
<polygon fill="black" stroke="black" points="162.34,-47.56 159.21,-37.44 155.34,-47.3 162.34,-47.56"/>
<text text-anchor="middle" x="215.5" y="-57.8" font-family="Inconsolata" font-size="14.00"> &#160;attrsReadOnly</text>
</g>
<!-- fileattrsw -->
<g id="node9" class="node">
<title>fileattrsw</title>
<polygon fill="#caff70" stroke="none" points="344,-36 233,-36 233,0 344,0 344,-36"/>
<text text-anchor="middle" x="288.5" y="-14.3" font-family="Inconsolata" font-size="14.00">FileAttrsWrite</text>
</g>
<!-- fileattrs&#45;&gt;fileattrsw -->
<g id="edge8" class="edge">
<title>fileattrs&#45;&gt;fileattrsw</title>
<path fill="none" stroke="black" d="M248.95,-87.1C255.21,-81.81 261.59,-75.61 266.5,-69 271.58,-62.17 275.8,-53.99 279.14,-46.24"/>
<polygon fill="black" stroke="black" points="282.3,-47.75 282.72,-37.17 275.79,-45.18 282.3,-47.75"/>
<text text-anchor="middle" x="329" y="-57.8" font-family="Inconsolata" font-size="14.00"> &#160;attrsWriteOnly</text>
</g>
</g>
</svg>
