<?xml version="1.0" encoding="UTF-8" standalone="no"?>
<!DOCTYPE svg PUBLIC "-//W3C//DTD SVG 1.1//EN"
 "http://www.w3.org/Graphics/SVG/1.1/DTD/svg11.dtd">
<!-- Generated by graphviz version 7.0.0 (0)
 -->
<!-- Title: G Pages: 1 -->
<svg width="139pt" height="218pt"
 viewBox="0.00 0.00 139.00 218.00" xmlns="http://www.w3.org/2000/svg" xmlns:xlink="http://www.w3.org/1999/xlink">
<g id="graph0" class="graph" transform="scale(1 1) rotate(0) translate(4 214)">
<title>G</title>
<polygon fill="white" stroke="none" points="-4,4 -4,-214 135,-214 135,4 -4,4"/>
<!-- root -->
<g id="node1" class="node">
<title>root</title>
<polygon fill="#caff70" stroke="none" points="121,-210 10,-210 10,-174 121,-174 121,-210"/>
<text text-anchor="middle" x="65.5" y="-188.3" font-family="Inconsolata" font-size="14.00">RootCapability</text>
</g>
<!-- net -->
<g id="node2" class="node">
<title>net</title>
<polygon fill="#caff70" stroke="none" points="131,-123 0,-123 0,-87 131,-87 131,-123"/>
<text text-anchor="middle" x="65.5" y="-101.3" font-family="Inconsolata" font-size="14.00">NetworkCapability</text>
</g>
<!-- root&#45;&gt;net -->
<g id="edge1" class="edge">
<title>root&#45;&gt;net</title>
<path fill="none" stroke="black" d="M65.5,-174.21C65.5,-162.8 65.5,-147.43 65.5,-134.17"/>
<polygon fill="black" stroke="black" points="69,-134.27 65.5,-124.27 62,-134.27 69,-134.27"/>
<text text-anchor="middle" x="96" y="-144.8" font-family="Inconsolata" font-size="14.00"> &#160;acquire</text>
</g>
<!-- sock -->
<g id="node3" class="node">
<title>sock</title>
<polygon fill="#caff70" stroke="none" points="94,-36 37,-36 37,0 94,0 94,-36"/>
<text text-anchor="middle" x="65.5" y="-14.3" font-family="Inconsolata" font-size="14.00">Socket</text>
</g>
<!-- net&#45;&gt;sock -->
<g id="edge2" class="edge">
<title>net&#45;&gt;sock</title>
<path fill="none" stroke="black" d="M65.5,-87.21C65.5,-75.8 65.5,-60.43 65.5,-47.17"/>
<polygon fill="black" stroke="black" points="69,-47.27 65.5,-37.27 62,-47.27 69,-47.27"/>
<text text-anchor="middle" x="82.5" y="-57.8" font-family="Inconsolata" font-size="14.00"> open</text>
</g>
</g>
</svg>
