<?xml version="1.0" encoding="UTF-8" standalone="no"?>
<!DOCTYPE svg PUBLIC "-//W3C//DTD SVG 1.1//EN"
 "http://www.w3.org/Graphics/SVG/1.1/DTD/svg11.dtd">
<!-- Generated by graphviz version 12.2.1 (20241206.2353)
 -->
<!-- Title: G Pages: 1 -->
<svg width="245pt" height="206pt"
 viewBox="0.00 0.00 244.75 206.00" xmlns="http://www.w3.org/2000/svg" xmlns:xlink="http://www.w3.org/1999/xlink">
<g id="graph0" class="graph" transform="scale(1 1) rotate(0) translate(4 202)">
<title>G</title>
<polygon fill="white" stroke="none" points="-4,4 -4,-202 240.75,-202 240.75,4 -4,4"/>
<!-- C -->
<g id="node1" class="node">
<title>C</title>
<polygon fill="none" stroke="black" points="54.88,-198 0.88,-198 0.88,-162 54.88,-162 54.88,-198"/>
<text text-anchor="middle" x="27.88" y="-174.95" font-family="Times,serif" font-size="14.00">C</text>
</g>
<!-- LLVM -->
<g id="node2" class="node">
<title>LLVM</title>
<polygon fill="none" stroke="black" points="146.75,-117 91.75,-117 91.75,-81 146.75,-81 146.75,-117"/>
<text text-anchor="middle" x="119.25" y="-93.95" font-family="Times,serif" font-size="14.00">LLVM</text>
</g>
<!-- C&#45;&gt;LLVM -->
<g id="edge1" class="edge">
<title>C&#45;&gt;LLVM</title>
<path fill="none" stroke="black" d="M49.16,-161.62C61.15,-150.75 76.54,-136.8 89.74,-124.83"/>
<polygon fill="black" stroke="black" points="91.87,-127.63 96.93,-118.32 87.17,-122.45 91.87,-127.63"/>
</g>
<!-- x86 -->
<g id="node6" class="node">
<title>x86</title>
<polygon fill="none" stroke="black" points="236.75,-171 182.75,-171 182.75,-135 236.75,-135 236.75,-171"/>
<text text-anchor="middle" x="209.75" y="-147.95" font-family="Times,serif" font-size="14.00">x86</text>
</g>
<!-- LLVM&#45;&gt;x86 -->
<g id="edge5" class="edge">
<title>LLVM&#45;&gt;x86</title>
<path fill="none" stroke="black" d="M146.8,-115.2C155.02,-120.21 164.2,-125.82 172.93,-131.15"/>
<polygon fill="black" stroke="black" points="170.87,-133.99 181.23,-136.21 174.52,-128.01 170.87,-133.99"/>
</g>
<!-- amd64 -->
<g id="node7" class="node">
<title>amd64</title>
<polygon fill="none" stroke="black" points="236.75,-117 182.75,-117 182.75,-81 236.75,-81 236.75,-117"/>
<text text-anchor="middle" x="209.75" y="-93.95" font-family="Times,serif" font-size="14.00">amd64</text>
</g>
<!-- LLVM&#45;&gt;amd64 -->
<g id="edge6" class="edge">
<title>LLVM&#45;&gt;amd64</title>
<path fill="none" stroke="black" d="M146.8,-99C154.49,-99 163.02,-99 171.24,-99"/>
<polygon fill="black" stroke="black" points="171.01,-102.5 181.01,-99 171.01,-95.5 171.01,-102.5"/>
</g>
<!-- arm64 -->
<g id="node8" class="node">
<title>arm64</title>
<polygon fill="none" stroke="black" points="236.75,-63 182.75,-63 182.75,-27 236.75,-27 236.75,-63"/>
<text text-anchor="middle" x="209.75" y="-39.95" font-family="Times,serif" font-size="14.00">arm64</text>
</g>
<!-- LLVM&#45;&gt;arm64 -->
<g id="edge7" class="edge">
<title>LLVM&#45;&gt;arm64</title>
<path fill="none" stroke="black" d="M146.8,-82.8C155.02,-77.79 164.2,-72.18 172.93,-66.85"/>
<polygon fill="black" stroke="black" points="174.52,-69.99 181.23,-61.79 170.87,-64.01 174.52,-69.99"/>
</g>
<!-- Ada -->
<g id="node3" class="node">
<title>Ada</title>
<polygon fill="none" stroke="black" points="54.88,-144 0.88,-144 0.88,-108 54.88,-108 54.88,-144"/>
<text text-anchor="middle" x="27.88" y="-120.95" font-family="Times,serif" font-size="14.00">Ada</text>
</g>
<!-- Ada&#45;&gt;LLVM -->
<g id="edge2" class="edge">
<title>Ada&#45;&gt;LLVM</title>
<path fill="none" stroke="black" d="M55.21,-118.05C63.16,-115.64 72.04,-112.96 80.58,-110.38"/>
<polygon fill="black" stroke="black" points="81.48,-113.77 90.04,-107.52 79.45,-107.06 81.48,-113.77"/>
</g>
<!-- Fortran -->
<g id="node4" class="node">
<title>Fortran</title>
<polygon fill="none" stroke="black" points="55.75,-90 0,-90 0,-54 55.75,-54 55.75,-90"/>
<text text-anchor="middle" x="27.88" y="-66.95" font-family="Times,serif" font-size="14.00">Fortran</text>
</g>
<!-- Fortran&#45;&gt;LLVM -->
<g id="edge3" class="edge">
<title>Fortran&#45;&gt;LLVM</title>
<path fill="none" stroke="black" d="M56.18,-80.25C63.87,-82.57 72.38,-85.14 80.57,-87.62"/>
<polygon fill="black" stroke="black" points="79.39,-90.92 89.97,-90.46 81.41,-84.22 79.39,-90.92"/>
</g>
<!-- Scala -->
<g id="node5" class="node">
<title>Scala</title>
<polygon fill="none" stroke="black" points="54.88,-36 0.88,-36 0.88,0 54.88,0 54.88,-36"/>
<text text-anchor="middle" x="27.88" y="-12.95" font-family="Times,serif" font-size="14.00">Scala</text>
</g>
<!-- Scala&#45;&gt;LLVM -->
<g id="edge4" class="edge">
<title>Scala&#45;&gt;LLVM</title>
<path fill="none" stroke="black" d="M49.16,-36.38C61.15,-47.25 76.54,-61.2 89.74,-73.17"/>
<polygon fill="black" stroke="black" points="87.17,-75.55 96.93,-79.68 91.87,-70.37 87.17,-75.55"/>
</g>
</g>
</svg>
