<?xml version="1.0" encoding="UTF-8" standalone="no"?>
<!DOCTYPE svg PUBLIC "-//W3C//DTD SVG 1.1//EN"
 "http://www.w3.org/Graphics/SVG/1.1/DTD/svg11.dtd">
<!-- Generated by graphviz version 2.43.0 (0)
 -->
<!-- Title: G Pages: 1 -->
<svg width="189pt" height="204pt"
 viewBox="0.00 0.00 189.29 204.00" xmlns="http://www.w3.org/2000/svg" xmlns:xlink="http://www.w3.org/1999/xlink">
<g id="graph0" class="graph" transform="scale(1 1) rotate(0) translate(4 200)">
<title>G</title>
<polygon fill="white" stroke="transparent" points="-4,4 -4,-200 185.29,-200 185.29,4 -4,4"/>
<!-- open -->
<g id="node1" class="node">
<title>open</title>
<ellipse fill="none" stroke="black" cx="98.05" cy="-178" rx="41.69" ry="18"/>
<text text-anchor="middle" x="98.05" y="-174.3" font-family="Times,serif" font-size="14.00">openFile</text>
</g>
<!-- write -->
<g id="node2" class="node">
<title>write</title>
<ellipse fill="none" stroke="black" cx="50.05" cy="-105" rx="50.09" ry="18"/>
<text text-anchor="middle" x="50.05" y="-101.3" font-family="Times,serif" font-size="14.00">writeString</text>
</g>
<!-- open&#45;&gt;write -->
<g id="edge1" class="edge">
<title>open&#45;&gt;write</title>
<path fill="none" stroke="black" d="M86.91,-160.53C81.06,-151.88 73.76,-141.08 67.2,-131.38"/>
<polygon fill="black" stroke="black" points="69.95,-129.2 61.45,-122.87 64.15,-133.12 69.95,-129.2"/>
</g>
<!-- close -->
<g id="node3" class="node">
<title>close</title>
<ellipse fill="none" stroke="black" cx="52.05" cy="-18" rx="42.49" ry="18"/>
<text text-anchor="middle" x="52.05" y="-14.3" font-family="Times,serif" font-size="14.00">closeFile</text>
</g>
<!-- open&#45;&gt;close -->
<g id="edge4" class="edge">
<title>open&#45;&gt;close</title>
<path fill="none" stroke="black" d="M110.46,-160.57C127.62,-135.68 154.12,-87.75 132.05,-54 124.57,-42.58 112.46,-34.86 99.89,-29.65"/>
<polygon fill="black" stroke="black" points="100.86,-26.28 90.27,-26.14 98.46,-32.86 100.86,-26.28"/>
</g>
<!-- write&#45;&gt;write -->
<g id="edge2" class="edge">
<title>write&#45;&gt;write</title>
<path fill="none" stroke="black" d="M96.8,-111.68C108.94,-111.27 118.09,-109.04 118.09,-105 118.09,-102.22 113.76,-100.3 107.12,-99.24"/>
<polygon fill="black" stroke="black" points="107.07,-95.72 96.8,-98.32 106.45,-102.69 107.07,-95.72"/>
</g>
<!-- write&#45;&gt;close -->
<g id="edge3" class="edge">
<title>write&#45;&gt;close</title>
<path fill="none" stroke="black" d="M39.15,-87.08C34.28,-77.48 30.2,-65.2 33.05,-54 33.86,-50.78 35.04,-47.54 36.42,-44.4"/>
<polygon fill="black" stroke="black" points="39.58,-45.89 40.97,-35.39 33.34,-42.73 39.58,-45.89"/>
</g>
<!-- close&#45;&gt;write -->
<g id="edge6" class="edge">
<title>close&#45;&gt;write</title>
<path fill="none" stroke="red" d="M51.64,-36.18C51.37,-47.81 51,-63.42 50.69,-76.73"/>
<polygon fill="red" stroke="red" points="47.19,-76.72 50.45,-86.8 54.18,-76.88 47.19,-76.72"/>
<text text-anchor="middle" x="91.55" y="-57.8" font-family="Times,serif" font-size="14.00">use after close</text>
</g>
<!-- close&#45;&gt;close -->
<g id="edge5" class="edge">
<title>close&#45;&gt;close</title>
<path fill="none" stroke="red" d="M90.29,-25.87C102.56,-25.79 112.29,-23.17 112.29,-18 112.29,-14.37 107.48,-11.99 100.36,-10.87"/>
<polygon fill="red" stroke="red" points="100.52,-7.37 90.29,-10.13 100,-14.35 100.52,-7.37"/>
<text text-anchor="middle" x="146.79" y="-14.3" font-family="Times,serif" font-size="14.00">double close</text>
</g>
</g>
</svg>
