<?xml version="1.0" encoding="UTF-8" standalone="no"?>
<!DOCTYPE svg PUBLIC "-//W3C//DTD SVG 1.1//EN"
 "http://www.w3.org/Graphics/SVG/1.1/DTD/svg11.dtd">
<!-- Generated by graphviz version 2.43.0 (0)
 -->
<!-- Title: G Pages: 1 -->
<svg width="331pt" height="204pt"
 viewBox="0.00 0.00 331.25 204.00" xmlns="http://www.w3.org/2000/svg" xmlns:xlink="http://www.w3.org/1999/xlink">
<g id="graph0" class="graph" transform="scale(1 1) rotate(0) translate(4 200)">
<title>G</title>
<polygon fill="white" stroke="transparent" points="-4,4 -4,-200 327.25,-200 327.25,4 -4,4"/>
<!-- open -->
<g id="node1" class="node">
<title>open</title>
<ellipse fill="none" stroke="black" cx="95.25" cy="-178" rx="41.69" ry="18"/>
<text text-anchor="middle" x="95.25" y="-174.3" font-family="Times,serif" font-size="14.00">openFile</text>
</g>
<!-- write -->
<g id="node2" class="node">
<title>write</title>
<ellipse fill="none" stroke="black" cx="95.25" cy="-105" rx="50.09" ry="18"/>
<text text-anchor="middle" x="95.25" y="-101.3" font-family="Times,serif" font-size="14.00">writeString</text>
</g>
<!-- open&#45;&gt;write -->
<g id="edge1" class="edge">
<title>open&#45;&gt;write</title>
<path fill="none" stroke="black" d="M95.25,-159.81C95.25,-151.79 95.25,-142.05 95.25,-133.07"/>
<polygon fill="black" stroke="black" points="98.75,-133.03 95.25,-123.03 91.75,-133.03 98.75,-133.03"/>
</g>
<!-- close -->
<g id="node3" class="node">
<title>close</title>
<ellipse fill="none" stroke="black" cx="42.25" cy="-18" rx="42.49" ry="18"/>
<text text-anchor="middle" x="42.25" y="-14.3" font-family="Times,serif" font-size="14.00">closeFile</text>
</g>
<!-- open&#45;&gt;close -->
<g id="edge4" class="edge">
<title>open&#45;&gt;close</title>
<path fill="none" stroke="black" d="M72.03,-162.86C58.85,-153.4 43.58,-139.65 36.25,-123 25.47,-98.53 29.14,-67.65 34.16,-45.91"/>
<polygon fill="black" stroke="black" points="37.6,-46.6 36.68,-36.05 30.82,-44.87 37.6,-46.6"/>
</g>
<!-- leak -->
<g id="node4" class="node">
<title>leak</title>
<ellipse fill="none" stroke="black" stroke-dasharray="1,5" cx="243.25" cy="-18" rx="27" ry="18"/>
<text text-anchor="middle" x="243.25" y="-14.3" font-family="Times,serif" font-size="14.00">leak</text>
</g>
<!-- open&#45;&gt;leak -->
<g id="edge7" class="edge">
<title>open&#45;&gt;leak</title>
<path fill="none" stroke="red" d="M127.26,-166.3C166.11,-151.39 229.81,-120.26 257.25,-69 261.3,-61.43 260.4,-52.57 257.67,-44.43"/>
<polygon fill="red" stroke="red" points="260.78,-42.81 253.64,-34.99 254.34,-45.56 260.78,-42.81"/>
<text text-anchor="middle" x="283.75" y="-101.3" font-family="Times,serif" font-size="14.00">forget to close</text>
</g>
<!-- write&#45;&gt;write -->
<g id="edge2" class="edge">
<title>write&#45;&gt;write</title>
<path fill="none" stroke="black" d="M142,-111.68C154.14,-111.27 163.29,-109.04 163.29,-105 163.29,-102.22 158.96,-100.3 152.32,-99.24"/>
<polygon fill="black" stroke="black" points="152.27,-95.72 142,-98.32 151.65,-102.69 152.27,-95.72"/>
</g>
<!-- write&#45;&gt;close -->
<g id="edge3" class="edge">
<title>write&#45;&gt;close</title>
<path fill="none" stroke="black" d="M73.58,-88.42C67.22,-82.91 60.76,-76.26 56.25,-69 51.94,-62.08 48.93,-53.81 46.84,-46.01"/>
<polygon fill="black" stroke="black" points="50.23,-45.15 44.59,-36.18 43.41,-46.71 50.23,-45.15"/>
</g>
<!-- write&#45;&gt;leak -->
<g id="edge8" class="edge">
<title>write&#45;&gt;leak</title>
<path fill="none" stroke="red" d="M120.81,-89.46C131.52,-83.27 144.06,-75.9 155.25,-69 165.63,-62.59 167.75,-60.23 178.25,-54 189.61,-47.25 202.37,-40.26 213.55,-34.32"/>
<polygon fill="red" stroke="red" points="215.29,-37.36 222.51,-29.6 212.03,-31.16 215.29,-37.36"/>
<text text-anchor="middle" x="217.75" y="-57.8" font-family="Times,serif" font-size="14.00">forget to close</text>
</g>
<!-- close&#45;&gt;write -->
<g id="edge6" class="edge">
<title>close&#45;&gt;write</title>
<path fill="none" stroke="red" d="M52.52,-35.47C60.14,-47.69 70.67,-64.58 79.37,-78.54"/>
<polygon fill="red" stroke="red" points="76.51,-80.57 84.78,-87.21 82.45,-76.87 76.51,-80.57"/>
<text text-anchor="middle" x="111.75" y="-57.8" font-family="Times,serif" font-size="14.00">use after close</text>
</g>
<!-- close&#45;&gt;close -->
<g id="edge5" class="edge">
<title>close&#45;&gt;close</title>
<path fill="none" stroke="red" d="M80.49,-25.87C92.76,-25.79 102.49,-23.17 102.49,-18 102.49,-14.37 97.68,-11.99 90.56,-10.87"/>
<polygon fill="red" stroke="red" points="90.72,-7.37 80.49,-10.13 90.2,-14.35 90.72,-7.37"/>
<text text-anchor="middle" x="136.99" y="-14.3" font-family="Times,serif" font-size="14.00">double close</text>
</g>
</g>
</svg>
