<?xml version="1.0" encoding="UTF-8" standalone="no"?>
<!DOCTYPE svg PUBLIC "-//W3C//DTD SVG 1.1//EN"
 "http://www.w3.org/Graphics/SVG/1.1/DTD/svg11.dtd">
<!-- Generated by graphviz version 2.43.0 (0)
 -->
<!-- Title: G Pages: 1 -->
<svg width="148pt" height="188pt"
 viewBox="0.00 0.00 148.29 188.00" xmlns="http://www.w3.org/2000/svg" xmlns:xlink="http://www.w3.org/1999/xlink">
<g id="graph0" class="graph" transform="scale(1 1) rotate(0) translate(4 184)">
<title>G</title>
<polygon fill="white" stroke="transparent" points="-4,4 -4,-184 144.29,-184 144.29,4 -4,4"/>
<!-- open -->
<g id="node1" class="node">
<title>open</title>
<ellipse fill="none" stroke="black" cx="98.05" cy="-162" rx="41.69" ry="18"/>
<text text-anchor="middle" x="98.05" y="-158.3" font-family="Times,serif" font-size="14.00">openFile</text>
</g>
<!-- write -->
<g id="node2" class="node">
<title>write</title>
<ellipse fill="none" stroke="black" cx="50.05" cy="-90" rx="50.09" ry="18"/>
<text text-anchor="middle" x="50.05" y="-86.3" font-family="Times,serif" font-size="14.00">writeString</text>
</g>
<!-- open&#45;&gt;write -->
<g id="edge1" class="edge">
<title>open&#45;&gt;write</title>
<path fill="none" stroke="black" d="M86.67,-144.41C80.96,-136.08 73.91,-125.8 67.52,-116.49"/>
<polygon fill="black" stroke="black" points="70.21,-114.22 61.67,-107.96 64.44,-118.18 70.21,-114.22"/>
</g>
<!-- close -->
<g id="node3" class="node">
<title>close</title>
<ellipse fill="none" stroke="black" cx="98.05" cy="-18" rx="42.49" ry="18"/>
<text text-anchor="middle" x="98.05" y="-14.3" font-family="Times,serif" font-size="14.00">closeFile</text>
</g>
<!-- open&#45;&gt;close -->
<g id="edge4" class="edge">
<title>open&#45;&gt;close</title>
<path fill="none" stroke="black" d="M109.75,-144.72C116.24,-134.67 123.67,-121.21 127.05,-108 131.01,-92.5 131.01,-87.5 127.05,-72 124.6,-62.45 120.04,-52.76 115.25,-44.33"/>
<polygon fill="black" stroke="black" points="118.22,-42.49 110.05,-35.74 112.24,-46.11 118.22,-42.49"/>
</g>
<!-- write&#45;&gt;write -->
<g id="edge2" class="edge">
<title>write&#45;&gt;write</title>
<path fill="none" stroke="black" d="M84.71,-103.06C102.31,-104.97 118.09,-100.62 118.09,-90 118.09,-81.46 107.87,-76.97 94.71,-76.53"/>
<polygon fill="black" stroke="black" points="94.56,-73.04 84.71,-76.94 94.84,-80.03 94.56,-73.04"/>
</g>
<!-- write&#45;&gt;close -->
<g id="edge3" class="edge">
<title>write&#45;&gt;close</title>
<path fill="none" stroke="black" d="M61.42,-72.41C67.28,-63.87 74.54,-53.28 81.05,-43.79"/>
<polygon fill="black" stroke="black" points="83.98,-45.7 86.75,-35.47 78.21,-41.74 83.98,-45.7"/>
</g>
</g>
</svg>
