<?xml version="1.0" encoding="windows-1252" standalone="no"?>
<svg xmlns="http://www.w3.org/2000/svg" xmlns:xlink="http://www.w3.org/1999/xlink" contentStyleType="text/css" height="575px" preserveAspectRatio="none" style="width:1212px;height:575px;background:#FFFFFF;" version="1.1" viewBox="0 0 1212 575" width="1212px" zoomAndPan="magnify"><defs/><g><line style="stroke:#181818;stroke-width:0.5;stroke-dasharray:5.0,5.0;" x1="51" x2="51" y1="36.2969" y2="539.8203"/><line style="stroke:#181818;stroke-width:0.5;stroke-dasharray:5.0,5.0;" x1="181" x2="181" y1="36.2969" y2="539.8203"/><line style="stroke:#181818;stroke-width:0.5;stroke-dasharray:5.0,5.0;" x1="294" x2="294" y1="36.2969" y2="539.8203"/><line style="stroke:#181818;stroke-width:0.5;stroke-dasharray:5.0,5.0;" x1="444" x2="444" y1="36.2969" y2="539.8203"/><line style="stroke:#181818;stroke-width:0.5;stroke-dasharray:5.0,5.0;" x1="608" x2="608" y1="36.2969" y2="539.8203"/><line style="stroke:#181818;stroke-width:0.5;stroke-dasharray:5.0,5.0;" x1="769" x2="769" y1="36.2969" y2="539.8203"/><line style="stroke:#181818;stroke-width:0.5;stroke-dasharray:5.0,5.0;" x1="968" x2="968" y1="36.2969" y2="539.8203"/><line style="stroke:#181818;stroke-width:0.5;stroke-dasharray:5.0,5.0;" x1="1148" x2="1148" y1="36.2969" y2="539.8203"/><rect fill="#E2E2F0" height="30.2969" rx="2.5" ry="2.5" style="stroke:#181818;stroke-width:0.5;" width="92" x="5" y="5"/><text fill="#000000" font-family="sans-serif" font-size="14" lengthAdjust="spacing" textLength="78" x="12" y="24.9951">Entrypoint</text><rect fill="#E2E2F0" height="30.2969" rx="2.5" ry="2.5" style="stroke:#181818;stroke-width:0.5;" width="92" x="5" y="538.8203"/><text fill="#000000" font-family="sans-serif" font-size="14" lengthAdjust="spacing" textLength="78" x="12" y="558.8154">Entrypoint</text><rect fill="#E2E2F0" height="30.2969" rx="2.5" ry="2.5" style="stroke:#181818;stroke-width:0.5;" width="80" x="141" y="5"/><text fill="#000000" font-family="sans-serif" font-size="14" lengthAdjust="spacing" textLength="66" x="148" y="24.9951">Compiler</text><rect fill="#E2E2F0" height="30.2969" rx="2.5" ry="2.5" style="stroke:#181818;stroke-width:0.5;" width="80" x="141" y="538.8203"/><text fill="#000000" font-family="sans-serif" font-size="14" lengthAdjust="spacing" textLength="66" x="148" y="558.8154">Compiler</text><rect fill="#E2E2F0" height="30.2969" rx="2.5" ry="2.5" style="stroke:#181818;stroke-width:0.5;" width="124" x="232" y="5"/><text fill="#000000" font-family="sans-serif" font-size="14" lengthAdjust="spacing" textLength="110" x="239" y="24.9951">Process Module</text><rect fill="#E2E2F0" height="30.2969" rx="2.5" ry="2.5" style="stroke:#181818;stroke-width:0.5;" width="124" x="232" y="538.8203"/><text fill="#000000" font-family="sans-serif" font-size="14" lengthAdjust="spacing" textLength="110" x="239" y="558.8154">Process Module</text><rect fill="#E2E2F0" height="30.2969" rx="2.5" ry="2.5" style="stroke:#181818;stroke-width:0.5;" width="156" x="366" y="5"/><text fill="#000000" font-family="sans-serif" font-size="14" lengthAdjust="spacing" textLength="142" x="373" y="24.9951">Process Declaration</text><rect fill="#E2E2F0" height="30.2969" rx="2.5" ry="2.5" style="stroke:#181818;stroke-width:0.5;" width="156" x="366" y="538.8203"/><text fill="#000000" font-family="sans-serif" font-size="14" lengthAdjust="spacing" textLength="142" x="373" y="558.8154">Process Declaration</text><rect fill="#E2E2F0" height="30.2969" rx="2.5" ry="2.5" style="stroke:#181818;stroke-width:0.5;" width="152" x="532" y="5"/><text fill="#000000" font-family="sans-serif" font-size="14" lengthAdjust="spacing" textLength="138" x="539" y="24.9951">Process Statement</text><rect fill="#E2E2F0" height="30.2969" rx="2.5" ry="2.5" style="stroke:#181818;stroke-width:0.5;" width="152" x="532" y="538.8203"/><text fill="#000000" font-family="sans-serif" font-size="14" lengthAdjust="spacing" textLength="138" x="539" y="558.8154">Process Statement</text><rect fill="#E2E2F0" height="30.2969" rx="2.5" ry="2.5" style="stroke:#181818;stroke-width:0.5;" width="151" x="694" y="5"/><text fill="#000000" font-family="sans-serif" font-size="14" lengthAdjust="spacing" textLength="137" x="701" y="24.9951">Process Expression</text><rect fill="#E2E2F0" height="30.2969" rx="2.5" ry="2.5" style="stroke:#181818;stroke-width:0.5;" width="151" x="694" y="538.8203"/><text fill="#000000" font-family="sans-serif" font-size="14" lengthAdjust="spacing" textLength="137" x="701" y="558.8154">Process Expression</text><rect fill="#E2E2F0" height="30.2969" rx="2.5" ry="2.5" style="stroke:#181818;stroke-width:0.5;" width="226" x="855" y="5"/><text fill="#000000" font-family="sans-serif" font-size="14" lengthAdjust="spacing" textLength="212" x="862" y="24.9951">... many levels of call stack ...</text><rect fill="#E2E2F0" height="30.2969" rx="2.5" ry="2.5" style="stroke:#181818;stroke-width:0.5;" width="226" x="855" y="538.8203"/><text fill="#000000" font-family="sans-serif" font-size="14" lengthAdjust="spacing" textLength="212" x="862" y="558.8154">... many levels of call stack ...</text><rect fill="#E2E2F0" height="30.2969" rx="2.5" ry="2.5" style="stroke:#181818;stroke-width:0.5;" width="115" x="1091" y="5"/><text fill="#000000" font-family="sans-serif" font-size="14" lengthAdjust="spacing" textLength="101" x="1098" y="24.9951">Inner function</text><rect fill="#E2E2F0" height="30.2969" rx="2.5" ry="2.5" style="stroke:#181818;stroke-width:0.5;" width="115" x="1091" y="538.8203"/><text fill="#000000" font-family="sans-serif" font-size="14" lengthAdjust="spacing" textLength="101" x="1098" y="558.8154">Inner function</text><polygon fill="#181818" points="169,63.4297,179,67.4297,169,71.4297,173,67.4297" style="stroke:#181818;stroke-width:1.0;"/><line style="stroke:#181818;stroke-width:1.0;" x1="51" x2="175" y1="67.4297" y2="67.4297"/><text fill="#000000" font-family="sans-serif" font-size="13" lengthAdjust="spacing" textLength="21" x="58" y="62.3638">call</text><polygon fill="#181818" points="282,92.5625,292,96.5625,282,100.5625,286,96.5625" style="stroke:#181818;stroke-width:1.0;"/><line style="stroke:#181818;stroke-width:1.0;" x1="181" x2="288" y1="96.5625" y2="96.5625"/><text fill="#000000" font-family="sans-serif" font-size="13" lengthAdjust="spacing" textLength="21" x="188" y="91.4966">call</text><polygon fill="#181818" points="432,121.6953,442,125.6953,432,129.6953,436,125.6953" style="stroke:#181818;stroke-width:1.0;"/><line style="stroke:#181818;stroke-width:1.0;" x1="294" x2="438" y1="125.6953" y2="125.6953"/><text fill="#000000" font-family="sans-serif" font-size="13" lengthAdjust="spacing" textLength="21" x="301" y="120.6294">call</text><polygon fill="#181818" points="596,150.8281,606,154.8281,596,158.8281,600,154.8281" style="stroke:#181818;stroke-width:1.0;"/><line style="stroke:#181818;stroke-width:1.0;" x1="444" x2="602" y1="154.8281" y2="154.8281"/><text fill="#000000" font-family="sans-serif" font-size="13" lengthAdjust="spacing" textLength="21" x="451" y="149.7622">call</text><polygon fill="#181818" points="757.5,179.9609,767.5,183.9609,757.5,187.9609,761.5,183.9609" style="stroke:#181818;stroke-width:1.0;"/><line style="stroke:#181818;stroke-width:1.0;" x1="608" x2="763.5" y1="183.9609" y2="183.9609"/><text fill="#000000" font-family="sans-serif" font-size="13" lengthAdjust="spacing" textLength="21" x="615" y="178.895">call</text><polygon fill="#181818" points="956,209.0938,966,213.0938,956,217.0938,960,213.0938" style="stroke:#181818;stroke-width:1.0;"/><line style="stroke:#181818;stroke-width:1.0;" x1="769.5" x2="962" y1="213.0938" y2="213.0938"/><text fill="#000000" font-family="sans-serif" font-size="13" lengthAdjust="spacing" textLength="21" x="776.5" y="208.0278">call</text><polygon fill="#181818" points="1136.5,238.2266,1146.5,242.2266,1136.5,246.2266,1140.5,242.2266" style="stroke:#181818;stroke-width:1.0;"/><line style="stroke:#181818;stroke-width:1.0;" x1="968" x2="1142.5" y1="242.2266" y2="242.2266"/><text fill="#000000" font-family="sans-serif" font-size="13" lengthAdjust="spacing" textLength="21" x="975" y="237.1606">call</text><polygon fill="#FF0000" points="979,282.4922,969,286.4922,979,290.4922,975,286.4922" style="stroke:#FF0000;stroke-width:1.0;"/><line style="stroke:#FF0000;stroke-width:1.0;" x1="973" x2="1147.5" y1="286.4922" y2="286.4922"/><text fill="#000000" font-family="sans-serif" font-size="13" lengthAdjust="spacing" textLength="66" x="985" y="266.2935">raise error</text><text fill="#000000" font-family="sans-serif" font-size="13" lengthAdjust="spacing" textLength="127" x="985" y="281.4263">(kind and message)</text><polygon fill="#FF0000" points="780.5,311.625,770.5,315.625,780.5,319.625,776.5,315.625" style="stroke:#FF0000;stroke-width:1.0;"/><line style="stroke:#FF0000;stroke-width:1.0;" x1="774.5" x2="967" y1="315.625" y2="315.625"/><text fill="#000000" font-family="sans-serif" font-size="13" lengthAdjust="spacing" textLength="46" x="786.5" y="310.5591">unwind</text><polygon fill="#FF0000" points="619,371.0234,609,375.0234,619,379.0234,615,375.0234" style="stroke:#FF0000;stroke-width:1.0;"/><line style="stroke:#FF0000;stroke-width:1.0;" x1="613" x2="768.5" y1="375.0234" y2="375.0234"/><text fill="#000000" font-family="sans-serif" font-size="13" lengthAdjust="spacing" textLength="68" x="625" y="339.6919">adorn with</text><text fill="#000000" font-family="sans-serif" font-size="13" lengthAdjust="spacing" textLength="82" x="625" y="354.8247">expr context</text><text fill="#000000" font-family="sans-serif" font-size="13" lengthAdjust="spacing" textLength="72" x="625" y="369.9575">and reraise</text><polygon fill="#FF0000" points="455,400.1563,445,404.1563,455,408.1563,451,404.1563" style="stroke:#FF0000;stroke-width:1.0;"/><line style="stroke:#FF0000;stroke-width:1.0;" x1="449" x2="607" y1="404.1563" y2="404.1563"/><text fill="#000000" font-family="sans-serif" font-size="13" lengthAdjust="spacing" textLength="46" x="461" y="399.0903">unwind</text><polygon fill="#FF0000" points="305,429.2891,295,433.2891,305,437.2891,301,433.2891" style="stroke:#FF0000;stroke-width:1.0;"/><line style="stroke:#FF0000;stroke-width:1.0;" x1="299" x2="443" y1="433.2891" y2="433.2891"/><text fill="#000000" font-family="sans-serif" font-size="13" lengthAdjust="spacing" textLength="46" x="311" y="428.2231">unwind</text><polygon fill="#FF0000" points="192,488.6875,182,492.6875,192,496.6875,188,492.6875" style="stroke:#FF0000;stroke-width:1.0;"/><line style="stroke:#FF0000;stroke-width:1.0;" x1="186" x2="293" y1="492.6875" y2="492.6875"/><text fill="#000000" font-family="sans-serif" font-size="13" lengthAdjust="spacing" textLength="68" x="198" y="457.356">adorn with</text><text fill="#000000" font-family="sans-serif" font-size="13" lengthAdjust="spacing" textLength="89" x="198" y="472.4888">module name</text><text fill="#000000" font-family="sans-serif" font-size="13" lengthAdjust="spacing" textLength="72" x="198" y="487.6216">and reraise</text><polygon fill="#FF0000" points="62,517.8203,52,521.8203,62,525.8203,58,521.8203" style="stroke:#FF0000;stroke-width:1.0;"/><line style="stroke:#FF0000;stroke-width:1.0;" x1="56" x2="180" y1="521.8203" y2="521.8203"/><text fill="#000000" font-family="sans-serif" font-size="13" lengthAdjust="spacing" textLength="106" x="68" y="516.7544">catch and report</text><!--SRC=[RLAxRiCm3Dpz5KIwj4Fy0Hswj1aw52ZGiUaWo7GZHA84cccIlo-jXn436G9JTyV77P8CYxCk6HBOx4Zucg8ZsO2P04cwTCk_nf2SHywirSUQ_kHeSPhW8mudZraKud1VyuRM6pRY8cNXeE_xoYynWW7hJPC4kQ_RNHBhjmr4VQw5VTz3C7G5Zt_e9uWZMEEzZZJs2CgMFh7hjdSYP1XFP9TZH-ewFGYsBpa5UCw3kbmhfgORD9UApEuQb6l5PYSDoxLYyz4Do_MCYLqWBHKPgG6Tbjll1yRXfmdPk0a1cIFlwV7eQ02Zlw3Hc5zyAZEMbhBlH6VLrOsDg_UP8JB1sSbXJrbW8mbUP4_pMCQyhnfehTLk7LiCDww4KwaSJsDgbBSBG_ud0Pc0wtqbwiK6bIJ57g2eKcJv1m00]--></g></svg>