<?xml version="1.0" encoding="UTF-8" standalone="no"?>
<!DOCTYPE svg PUBLIC "-//W3C//DTD SVG 1.1//EN"
 "http://www.w3.org/Graphics/SVG/1.1/DTD/svg11.dtd">
<!-- Generated by graphviz version 2.43.0 (0)
 -->
<!-- Title: G Pages: 1 -->
<svg width="943pt" height="476pt"
 viewBox="0.00 0.00 943.00 476.00" xmlns="http://www.w3.org/2000/svg" xmlns:xlink="http://www.w3.org/1999/xlink">
<g id="graph0" class="graph" transform="scale(1 1) rotate(0) translate(4 472)">
<title>G</title>
<polygon fill="white" stroke="transparent" points="-4,4 -4,-472 939,-472 939,4 -4,4"/>
<!-- s0 -->
<g id="node1" class="node">
<title>s0</title>
<polygon fill="#98f5ff" stroke="transparent" points="488.5,-468 385.5,-468 385.5,-432 488.5,-432 488.5,-468"/>
<text text-anchor="middle" x="437" y="-446.3" font-family="Times,serif" font-size="14.00">P ∧ (Q ∨ ¬R)</text>
</g>
<!-- p1t -->
<g id="node2" class="node">
<title>p1t</title>
<polygon fill="#caff70" stroke="transparent" points="428,-396 374,-396 374,-360 428,-360 428,-396"/>
<text text-anchor="middle" x="401" y="-374.3" font-family="Times,serif" font-size="14.00">P → T</text>
</g>
<!-- s0&#45;&gt;p1t -->
<g id="edge1" class="edge">
<title>s0&#45;&gt;p1t</title>
<path fill="none" stroke="black" d="M428.1,-431.7C424,-423.73 419.05,-414.1 414.51,-405.26"/>
<polygon fill="black" stroke="black" points="417.48,-403.4 409.8,-396.1 411.26,-406.6 417.48,-403.4"/>
</g>
<!-- p1f -->
<g id="node3" class="node">
<title>p1f</title>
<polygon fill="#caff70" stroke="transparent" points="512,-396 458,-396 458,-360 512,-360 512,-396"/>
<text text-anchor="middle" x="485" y="-374.3" font-family="Times,serif" font-size="14.00">P → F</text>
</g>
<!-- s0&#45;&gt;p1f -->
<g id="edge2" class="edge">
<title>s0&#45;&gt;p1f</title>
<path fill="none" stroke="black" d="M448.87,-431.7C454.5,-423.47 461.35,-413.48 467.57,-404.42"/>
<polygon fill="black" stroke="black" points="470.5,-406.33 473.27,-396.1 464.73,-402.37 470.5,-406.33"/>
</g>
<!-- s1t -->
<g id="node4" class="node">
<title>s1t</title>
<polygon fill="#98f5ff" stroke="transparent" points="428,-324 324,-324 324,-288 428,-288 428,-324"/>
<text text-anchor="middle" x="376" y="-302.3" font-family="Times,serif" font-size="14.00">T ∧ (Q ∨ ¬R)</text>
</g>
<!-- p1t&#45;&gt;s1t -->
<g id="edge3" class="edge">
<title>p1t&#45;&gt;s1t</title>
<path fill="none" stroke="black" d="M394.82,-359.7C392,-351.81 388.61,-342.3 385.48,-333.55"/>
<polygon fill="black" stroke="black" points="388.77,-332.34 382.11,-324.1 382.18,-334.7 388.77,-332.34"/>
</g>
<!-- s1f -->
<g id="node5" class="node">
<title>s1f</title>
<polygon fill="#98f5ff" stroke="transparent" points="607,-324 503,-324 503,-288 607,-288 607,-324"/>
<text text-anchor="middle" x="555" y="-302.3" font-family="Times,serif" font-size="14.00">F ∧ (Q ∨ ¬R)</text>
</g>
<!-- p1f&#45;&gt;s1f -->
<g id="edge4" class="edge">
<title>p1f&#45;&gt;s1f</title>
<path fill="none" stroke="black" d="M502.3,-359.7C510.86,-351.14 521.34,-340.66 530.7,-331.3"/>
<polygon fill="black" stroke="black" points="533.3,-333.65 537.9,-324.1 528.35,-328.7 533.3,-333.65"/>
</g>
<!-- q2t -->
<g id="node6" class="node">
<title>q2t</title>
<polygon fill="#caff70" stroke="transparent" points="278,-252 224,-252 224,-216 278,-216 278,-252"/>
<text text-anchor="middle" x="251" y="-230.3" font-family="Times,serif" font-size="14.00">Q → T</text>
</g>
<!-- s1t&#45;&gt;q2t -->
<g id="edge5" class="edge">
<title>s1t&#45;&gt;q2t</title>
<path fill="none" stroke="black" d="M345.42,-287.88C327.78,-278 305.5,-265.52 287.02,-255.17"/>
<polygon fill="black" stroke="black" points="288.72,-252.11 278.28,-250.28 285.3,-258.22 288.72,-252.11"/>
</g>
<!-- q2f -->
<g id="node7" class="node">
<title>q2f</title>
<polygon fill="#caff70" stroke="transparent" points="403,-252 349,-252 349,-216 403,-216 403,-252"/>
<text text-anchor="middle" x="376" y="-230.3" font-family="Times,serif" font-size="14.00">Q → F</text>
</g>
<!-- s1t&#45;&gt;q2f -->
<g id="edge6" class="edge">
<title>s1t&#45;&gt;q2f</title>
<path fill="none" stroke="black" d="M376,-287.7C376,-279.98 376,-270.71 376,-262.11"/>
<polygon fill="black" stroke="black" points="379.5,-262.1 376,-252.1 372.5,-262.1 379.5,-262.1"/>
</g>
<!-- q3t -->
<g id="node10" class="node">
<title>q3t</title>
<polygon fill="#caff70" stroke="transparent" points="582,-252 528,-252 528,-216 582,-216 582,-252"/>
<text text-anchor="middle" x="555" y="-230.3" font-family="Times,serif" font-size="14.00">Q → T</text>
</g>
<!-- s1f&#45;&gt;q3t -->
<g id="edge9" class="edge">
<title>s1f&#45;&gt;q3t</title>
<path fill="none" stroke="black" d="M555,-287.7C555,-279.98 555,-270.71 555,-262.11"/>
<polygon fill="black" stroke="black" points="558.5,-262.1 555,-252.1 551.5,-262.1 558.5,-262.1"/>
</g>
<!-- q3f -->
<g id="node11" class="node">
<title>q3f</title>
<polygon fill="#caff70" stroke="transparent" points="737,-252 683,-252 683,-216 737,-216 737,-252"/>
<text text-anchor="middle" x="710" y="-230.3" font-family="Times,serif" font-size="14.00">Q → F</text>
</g>
<!-- s1f&#45;&gt;q3f -->
<g id="edge10" class="edge">
<title>s1f&#45;&gt;q3f</title>
<path fill="none" stroke="black" d="M592.92,-287.88C617.44,-276.8 649.2,-262.46 673.45,-251.5"/>
<polygon fill="black" stroke="black" points="675.01,-254.64 682.68,-247.34 672.13,-248.26 675.01,-254.64"/>
</g>
<!-- s2t -->
<g id="node8" class="node">
<title>s2t</title>
<polygon fill="#98f5ff" stroke="transparent" points="222.5,-180 119.5,-180 119.5,-144 222.5,-144 222.5,-180"/>
<text text-anchor="middle" x="171" y="-158.3" font-family="Times,serif" font-size="14.00">T ∧ (T ∨ ¬R)</text>
</g>
<!-- q2t&#45;&gt;s2t -->
<g id="edge7" class="edge">
<title>q2t&#45;&gt;s2t</title>
<path fill="none" stroke="black" d="M231.22,-215.7C221.25,-206.97 208.99,-196.24 198.14,-186.75"/>
<polygon fill="black" stroke="black" points="200.38,-184.06 190.55,-180.1 195.77,-189.32 200.38,-184.06"/>
</g>
<!-- s2f -->
<g id="node9" class="node">
<title>s2f</title>
<polygon fill="#98f5ff" stroke="transparent" points="427,-180 325,-180 325,-144 427,-144 427,-180"/>
<text text-anchor="middle" x="376" y="-158.3" font-family="Times,serif" font-size="14.00">T ∧ (F ∨ ¬R)</text>
</g>
<!-- q2f&#45;&gt;s2f -->
<g id="edge8" class="edge">
<title>q2f&#45;&gt;s2f</title>
<path fill="none" stroke="black" d="M376,-215.7C376,-207.98 376,-198.71 376,-190.11"/>
<polygon fill="black" stroke="black" points="379.5,-190.1 376,-180.1 372.5,-190.1 379.5,-190.1"/>
</g>
<!-- r4t -->
<g id="node14" class="node">
<title>r4t</title>
<polygon fill="#caff70" stroke="transparent" points="102,-108 48,-108 48,-72 102,-72 102,-108"/>
<text text-anchor="middle" x="75" y="-86.3" font-family="Times,serif" font-size="14.00">R → T</text>
</g>
<!-- s2t&#45;&gt;r4t -->
<g id="edge13" class="edge">
<title>s2t&#45;&gt;r4t</title>
<path fill="none" stroke="black" d="M147.27,-143.7C135.06,-134.8 120.01,-123.82 106.82,-114.2"/>
<polygon fill="black" stroke="black" points="108.6,-111.17 98.46,-108.1 104.48,-116.82 108.6,-111.17"/>
</g>
<!-- r4f -->
<g id="node15" class="node">
<title>r4f</title>
<polygon fill="#caff70" stroke="transparent" points="198,-108 144,-108 144,-72 198,-72 198,-108"/>
<text text-anchor="middle" x="171" y="-86.3" font-family="Times,serif" font-size="14.00">R → F</text>
</g>
<!-- s2t&#45;&gt;r4f -->
<g id="edge14" class="edge">
<title>s2t&#45;&gt;r4f</title>
<path fill="none" stroke="black" d="M171,-143.7C171,-135.98 171,-126.71 171,-118.11"/>
<polygon fill="black" stroke="black" points="174.5,-118.1 171,-108.1 167.5,-118.1 174.5,-118.1"/>
</g>
<!-- r5t -->
<g id="node18" class="node">
<title>r5t</title>
<polygon fill="#caff70" stroke="transparent" points="329,-108 275,-108 275,-72 329,-72 329,-108"/>
<text text-anchor="middle" x="302" y="-86.3" font-family="Times,serif" font-size="14.00">R → T</text>
</g>
<!-- s2f&#45;&gt;r5t -->
<g id="edge17" class="edge">
<title>s2f&#45;&gt;r5t</title>
<path fill="none" stroke="black" d="M357.71,-143.7C348.57,-135.05 337.36,-124.45 327.4,-115.03"/>
<polygon fill="black" stroke="black" points="329.75,-112.43 320.08,-108.1 324.94,-117.52 329.75,-112.43"/>
</g>
<!-- r5f -->
<g id="node19" class="node">
<title>r5f</title>
<polygon fill="#caff70" stroke="transparent" points="413,-108 359,-108 359,-72 413,-72 413,-108"/>
<text text-anchor="middle" x="386" y="-86.3" font-family="Times,serif" font-size="14.00">R → F</text>
</g>
<!-- s2f&#45;&gt;r5f -->
<g id="edge18" class="edge">
<title>s2f&#45;&gt;r5f</title>
<path fill="none" stroke="black" d="M378.47,-143.7C379.57,-135.98 380.9,-126.71 382.13,-118.11"/>
<polygon fill="black" stroke="black" points="385.61,-118.5 383.56,-108.1 378.68,-117.51 385.61,-118.5"/>
</g>
<!-- s3t -->
<g id="node12" class="node">
<title>s3t</title>
<polygon fill="#98f5ff" stroke="transparent" points="606,-180 504,-180 504,-144 606,-144 606,-180"/>
<text text-anchor="middle" x="555" y="-158.3" font-family="Times,serif" font-size="14.00">F ∧ (T ∨ ¬R)</text>
</g>
<!-- q3t&#45;&gt;s3t -->
<g id="edge11" class="edge">
<title>q3t&#45;&gt;s3t</title>
<path fill="none" stroke="black" d="M555,-215.7C555,-207.98 555,-198.71 555,-190.11"/>
<polygon fill="black" stroke="black" points="558.5,-190.1 555,-180.1 551.5,-190.1 558.5,-190.1"/>
</g>
<!-- s3f -->
<g id="node13" class="node">
<title>s3f</title>
<polygon fill="#98f5ff" stroke="transparent" points="816.5,-180 715.5,-180 715.5,-144 816.5,-144 816.5,-180"/>
<text text-anchor="middle" x="766" y="-158.3" font-family="Times,serif" font-size="14.00">F ∧ (F ∨ ¬R)</text>
</g>
<!-- q3f&#45;&gt;s3f -->
<g id="edge12" class="edge">
<title>q3f&#45;&gt;s3f</title>
<path fill="none" stroke="black" d="M723.84,-215.7C730.49,-207.39 738.58,-197.28 745.89,-188.14"/>
<polygon fill="black" stroke="black" points="748.8,-190.1 752.32,-180.1 743.34,-185.73 748.8,-190.1"/>
</g>
<!-- r6t -->
<g id="node22" class="node">
<title>r6t</title>
<polygon fill="#caff70" stroke="transparent" points="564,-108 510,-108 510,-72 564,-72 564,-108"/>
<text text-anchor="middle" x="537" y="-86.3" font-family="Times,serif" font-size="14.00">R → T</text>
</g>
<!-- s3t&#45;&gt;r6t -->
<g id="edge21" class="edge">
<title>s3t&#45;&gt;r6t</title>
<path fill="none" stroke="black" d="M550.55,-143.7C548.55,-135.9 546.13,-126.51 543.9,-117.83"/>
<polygon fill="black" stroke="black" points="547.28,-116.92 541.4,-108.1 540.5,-118.66 547.28,-116.92"/>
</g>
<!-- r6f -->
<g id="node23" class="node">
<title>r6f</title>
<polygon fill="#caff70" stroke="transparent" points="651,-108 597,-108 597,-72 651,-72 651,-108"/>
<text text-anchor="middle" x="624" y="-86.3" font-family="Times,serif" font-size="14.00">R → F</text>
</g>
<!-- s3t&#45;&gt;r6f -->
<g id="edge22" class="edge">
<title>s3t&#45;&gt;r6f</title>
<path fill="none" stroke="black" d="M572.06,-143.7C580.5,-135.14 590.82,-124.66 600.04,-115.3"/>
<polygon fill="black" stroke="black" points="602.61,-117.68 607.14,-108.1 597.63,-112.77 602.61,-117.68"/>
</g>
<!-- r7t -->
<g id="node26" class="node">
<title>r7t</title>
<polygon fill="#caff70" stroke="transparent" points="793,-108 739,-108 739,-72 793,-72 793,-108"/>
<text text-anchor="middle" x="766" y="-86.3" font-family="Times,serif" font-size="14.00">R → T</text>
</g>
<!-- s3f&#45;&gt;r7t -->
<g id="edge25" class="edge">
<title>s3f&#45;&gt;r7t</title>
<path fill="none" stroke="black" d="M766,-143.7C766,-135.98 766,-126.71 766,-118.11"/>
<polygon fill="black" stroke="black" points="769.5,-118.1 766,-108.1 762.5,-118.1 769.5,-118.1"/>
</g>
<!-- r7f -->
<g id="node27" class="node">
<title>r7f</title>
<polygon fill="#caff70" stroke="transparent" points="888,-108 834,-108 834,-72 888,-72 888,-108"/>
<text text-anchor="middle" x="861" y="-86.3" font-family="Times,serif" font-size="14.00">R → F</text>
</g>
<!-- s3f&#45;&gt;r7f -->
<g id="edge26" class="edge">
<title>s3f&#45;&gt;r7f</title>
<path fill="none" stroke="black" d="M789.48,-143.7C801.56,-134.8 816.45,-123.82 829.52,-114.2"/>
<polygon fill="black" stroke="black" points="831.81,-116.85 837.79,-108.1 827.66,-111.22 831.81,-116.85"/>
</g>
<!-- s4t -->
<g id="node16" class="node">
<title>s4t</title>
<polygon fill="#98f5ff" stroke="transparent" points="102,-36 0,-36 0,0 102,0 102,-36"/>
<text text-anchor="middle" x="51" y="-14.3" font-family="Times,serif" font-size="14.00">T ∧ (T ∨ ¬T)</text>
</g>
<!-- r4t&#45;&gt;s4t -->
<g id="edge15" class="edge">
<title>r4t&#45;&gt;s4t</title>
<path fill="none" stroke="black" d="M69.07,-71.7C66.39,-63.9 63.17,-54.51 60.2,-45.83"/>
<polygon fill="black" stroke="black" points="63.42,-44.43 56.86,-36.1 56.8,-46.7 63.42,-44.43"/>
</g>
<!-- s4f -->
<g id="node17" class="node">
<title>s4f</title>
<polygon fill="#98f5ff" stroke="transparent" points="221.5,-36 120.5,-36 120.5,0 221.5,0 221.5,-36"/>
<text text-anchor="middle" x="171" y="-14.3" font-family="Times,serif" font-size="14.00">T ∧ (T ∨ ¬F)</text>
</g>
<!-- r4f&#45;&gt;s4f -->
<g id="edge16" class="edge">
<title>r4f&#45;&gt;s4f</title>
<path fill="none" stroke="black" d="M171,-71.7C171,-63.98 171,-54.71 171,-46.11"/>
<polygon fill="black" stroke="black" points="174.5,-46.1 171,-36.1 167.5,-46.1 174.5,-46.1"/>
</g>
<!-- s5t -->
<g id="node20" class="node">
<title>s5t</title>
<polygon fill="#98f5ff" stroke="transparent" points="340.5,-36 239.5,-36 239.5,0 340.5,0 340.5,-36"/>
<text text-anchor="middle" x="290" y="-14.3" font-family="Times,serif" font-size="14.00">T ∧ (F ∨ ¬T)</text>
</g>
<!-- r5t&#45;&gt;s5t -->
<g id="edge19" class="edge">
<title>r5t&#45;&gt;s5t</title>
<path fill="none" stroke="black" d="M299.03,-71.7C297.71,-63.98 296.12,-54.71 294.65,-46.11"/>
<polygon fill="black" stroke="black" points="298.07,-45.37 292.93,-36.1 291.17,-46.55 298.07,-45.37"/>
</g>
<!-- s5f -->
<g id="node21" class="node">
<title>s5f</title>
<polygon fill="#98f5ff" stroke="transparent" points="459.5,-36 358.5,-36 358.5,0 459.5,0 459.5,-36"/>
<text text-anchor="middle" x="409" y="-14.3" font-family="Times,serif" font-size="14.00">T ∧ (F ∨ ¬F)</text>
</g>
<!-- r5f&#45;&gt;s5f -->
<g id="edge20" class="edge">
<title>r5f&#45;&gt;s5f</title>
<path fill="none" stroke="black" d="M391.69,-71.7C394.25,-63.9 397.33,-54.51 400.18,-45.83"/>
<polygon fill="black" stroke="black" points="403.58,-46.7 403.38,-36.1 396.93,-44.51 403.58,-46.7"/>
</g>
<!-- s6t -->
<g id="node24" class="node">
<title>s6t</title>
<polygon fill="#98f5ff" stroke="transparent" points="578.5,-36 477.5,-36 477.5,0 578.5,0 578.5,-36"/>
<text text-anchor="middle" x="528" y="-14.3" font-family="Times,serif" font-size="14.00">F ∧ (T ∨ ¬T)</text>
</g>
<!-- r6t&#45;&gt;s6t -->
<g id="edge23" class="edge">
<title>r6t&#45;&gt;s6t</title>
<path fill="none" stroke="black" d="M534.78,-71.7C533.78,-63.98 532.59,-54.71 531.49,-46.11"/>
<polygon fill="black" stroke="black" points="534.95,-45.58 530.2,-36.1 528,-46.47 534.95,-45.58"/>
</g>
<!-- s6f -->
<g id="node25" class="node">
<title>s6f</title>
<polygon fill="#98f5ff" stroke="transparent" points="697.5,-36 596.5,-36 596.5,0 697.5,0 697.5,-36"/>
<text text-anchor="middle" x="647" y="-14.3" font-family="Times,serif" font-size="14.00">F ∧ (T ∨ ¬F)</text>
</g>
<!-- r6f&#45;&gt;s6f -->
<g id="edge24" class="edge">
<title>r6f&#45;&gt;s6f</title>
<path fill="none" stroke="black" d="M629.69,-71.7C632.25,-63.9 635.33,-54.51 638.18,-45.83"/>
<polygon fill="black" stroke="black" points="641.58,-46.7 641.38,-36.1 634.93,-44.51 641.58,-46.7"/>
</g>
<!-- s7t -->
<g id="node28" class="node">
<title>s7t</title>
<polygon fill="#98f5ff" stroke="transparent" points="816.5,-36 715.5,-36 715.5,0 816.5,0 816.5,-36"/>
<text text-anchor="middle" x="766" y="-14.3" font-family="Times,serif" font-size="14.00">F ∧ (F ∨ ¬T)</text>
</g>
<!-- r7t&#45;&gt;s7t -->
<g id="edge27" class="edge">
<title>r7t&#45;&gt;s7t</title>
<path fill="none" stroke="black" d="M766,-71.7C766,-63.98 766,-54.71 766,-46.11"/>
<polygon fill="black" stroke="black" points="769.5,-46.1 766,-36.1 762.5,-46.1 769.5,-46.1"/>
</g>
<!-- s7f -->
<g id="node29" class="node">
<title>s7f</title>
<polygon fill="#98f5ff" stroke="transparent" points="935,-36 835,-36 835,0 935,0 935,-36"/>
<text text-anchor="middle" x="885" y="-14.3" font-family="Times,serif" font-size="14.00">F ∧ (F ∨ ¬F)</text>
</g>
<!-- r7f&#45;&gt;s7f -->
<g id="edge28" class="edge">
<title>r7f&#45;&gt;s7f</title>
<path fill="none" stroke="black" d="M866.93,-71.7C869.61,-63.9 872.83,-54.51 875.8,-45.83"/>
<polygon fill="black" stroke="black" points="879.2,-46.7 879.14,-36.1 872.58,-44.43 879.2,-46.7"/>
</g>
</g>
</svg>
