<?xml version="1.0" encoding="UTF-8" standalone="no"?>
<!DOCTYPE svg PUBLIC "-//W3C//DTD SVG 1.1//EN"
 "http://www.w3.org/Graphics/SVG/1.1/DTD/svg11.dtd">
<!-- Generated by graphviz version 2.43.0 (0)
 -->
<!-- Title: G Pages: 1 -->
<svg width="1094pt" height="476pt"
 viewBox="0.00 0.00 1094.00 476.00" xmlns="http://www.w3.org/2000/svg" xmlns:xlink="http://www.w3.org/1999/xlink">
<g id="graph0" class="graph" transform="scale(1 1) rotate(0) translate(4 472)">
<title>G</title>
<polygon fill="white" stroke="transparent" points="-4,4 -4,-472 1090,-472 1090,4 -4,4"/>
<!-- s0 -->
<g id="node1" class="node">
<title>s0</title>
<polygon fill="#98f5ff" stroke="transparent" points="594.5,-468 491.5,-468 491.5,-432 594.5,-432 594.5,-468"/>
<text text-anchor="middle" x="543" y="-446.3" font-family="Times,serif" font-size="14.00">P ∧ (Q ∨ ¬R)</text>
</g>
<!-- p1t -->
<g id="node2" class="node">
<title>p1t</title>
<polygon fill="#caff70" stroke="transparent" points="534.5,-396 479.5,-396 479.5,-360 534.5,-360 534.5,-396"/>
<text text-anchor="middle" x="507" y="-374.3" font-family="Times,serif" font-size="14.00">P → ⊤</text>
</g>
<!-- s0&#45;&gt;p1t -->
<g id="edge1" class="edge">
<title>s0&#45;&gt;p1t</title>
<path fill="none" stroke="black" d="M534.1,-431.7C530,-423.73 525.05,-414.1 520.51,-405.26"/>
<polygon fill="black" stroke="black" points="523.48,-403.4 515.8,-396.1 517.26,-406.6 523.48,-403.4"/>
</g>
<!-- p1f -->
<g id="node3" class="node">
<title>p1f</title>
<polygon fill="#caff70" stroke="transparent" points="650.5,-396 595.5,-396 595.5,-360 650.5,-360 650.5,-396"/>
<text text-anchor="middle" x="623" y="-374.3" font-family="Times,serif" font-size="14.00">P → ⊥</text>
</g>
<!-- s0&#45;&gt;p1f -->
<g id="edge2" class="edge">
<title>s0&#45;&gt;p1f</title>
<path fill="none" stroke="black" d="M562.78,-431.7C572.75,-422.97 585.01,-412.24 595.86,-402.75"/>
<polygon fill="black" stroke="black" points="598.23,-405.32 603.45,-396.1 593.62,-400.06 598.23,-405.32"/>
</g>
<!-- s1t -->
<g id="node4" class="node">
<title>s1t</title>
<polygon fill="#98f5ff" stroke="transparent" points="476,-324 366,-324 366,-288 476,-288 476,-324"/>
<text text-anchor="middle" x="421" y="-302.3" font-family="Times,serif" font-size="14.00">⊤ ∧ (Q ∨ ¬R)</text>
</g>
<!-- p1t&#45;&gt;s1t -->
<g id="edge3" class="edge">
<title>p1t&#45;&gt;s1t</title>
<path fill="none" stroke="black" d="M485.74,-359.7C474.91,-350.88 461.58,-340.03 449.84,-330.47"/>
<polygon fill="black" stroke="black" points="451.98,-327.7 442.01,-324.1 447.56,-333.13 451.98,-327.7"/>
</g>
<!-- s1f -->
<g id="node5" class="node">
<title>s1f</title>
<polygon fill="#98f5ff" stroke="transparent" points="705,-324 595,-324 595,-288 705,-288 705,-324"/>
<text text-anchor="middle" x="650" y="-302.3" font-family="Times,serif" font-size="14.00">⊥ ∧ (Q ∨ ¬R)</text>
</g>
<!-- p1f&#45;&gt;s1f -->
<g id="edge4" class="edge">
<title>p1f&#45;&gt;s1f</title>
<path fill="none" stroke="black" d="M629.67,-359.7C632.71,-351.81 636.38,-342.3 639.76,-333.55"/>
<polygon fill="black" stroke="black" points="643.07,-334.69 643.4,-324.1 636.54,-332.17 643.07,-334.69"/>
</g>
<!-- q2t -->
<g id="node6" class="node">
<title>q2t</title>
<polygon fill="#caff70" stroke="transparent" points="309,-252 251,-252 251,-216 309,-216 309,-252"/>
<text text-anchor="middle" x="280" y="-230.3" font-family="Times,serif" font-size="14.00">Q → ⊤</text>
</g>
<!-- s1t&#45;&gt;q2t -->
<g id="edge5" class="edge">
<title>s1t&#45;&gt;q2t</title>
<path fill="none" stroke="black" d="M386.51,-287.88C365.91,-277.65 339.71,-264.64 318.45,-254.09"/>
<polygon fill="black" stroke="black" points="319.89,-250.89 309.37,-249.58 316.77,-257.16 319.89,-250.89"/>
</g>
<!-- q2f -->
<g id="node7" class="node">
<title>q2f</title>
<polygon fill="#caff70" stroke="transparent" points="450,-252 392,-252 392,-216 450,-216 450,-252"/>
<text text-anchor="middle" x="421" y="-230.3" font-family="Times,serif" font-size="14.00">Q → ⊥</text>
</g>
<!-- s1t&#45;&gt;q2f -->
<g id="edge6" class="edge">
<title>s1t&#45;&gt;q2f</title>
<path fill="none" stroke="black" d="M421,-287.7C421,-279.98 421,-270.71 421,-262.11"/>
<polygon fill="black" stroke="black" points="424.5,-262.1 421,-252.1 417.5,-262.1 424.5,-262.1"/>
</g>
<!-- q3t -->
<g id="node10" class="node">
<title>q3t</title>
<polygon fill="#caff70" stroke="transparent" points="679,-252 621,-252 621,-216 679,-216 679,-252"/>
<text text-anchor="middle" x="650" y="-230.3" font-family="Times,serif" font-size="14.00">Q → ⊤</text>
</g>
<!-- s1f&#45;&gt;q3t -->
<g id="edge9" class="edge">
<title>s1f&#45;&gt;q3t</title>
<path fill="none" stroke="black" d="M650,-287.7C650,-279.98 650,-270.71 650,-262.11"/>
<polygon fill="black" stroke="black" points="653.5,-262.1 650,-252.1 646.5,-262.1 653.5,-262.1"/>
</g>
<!-- q3f -->
<g id="node11" class="node">
<title>q3f</title>
<polygon fill="#caff70" stroke="transparent" points="836,-252 778,-252 778,-216 836,-216 836,-252"/>
<text text-anchor="middle" x="807" y="-230.3" font-family="Times,serif" font-size="14.00">Q → ⊥</text>
</g>
<!-- s1f&#45;&gt;q3f -->
<g id="edge10" class="edge">
<title>s1f&#45;&gt;q3f</title>
<path fill="none" stroke="black" d="M688.41,-287.88C712.77,-277.01 744.18,-263.01 768.55,-252.14"/>
<polygon fill="black" stroke="black" points="770.14,-255.27 777.85,-248 767.29,-248.87 770.14,-255.27"/>
</g>
<!-- s2t -->
<g id="node8" class="node">
<title>s2t</title>
<polygon fill="#98f5ff" stroke="transparent" points="255.5,-180 140.5,-180 140.5,-144 255.5,-144 255.5,-180"/>
<text text-anchor="middle" x="198" y="-158.3" font-family="Times,serif" font-size="14.00">⊤ ∧ (⊤ ∨ ¬R)</text>
</g>
<!-- q2t&#45;&gt;s2t -->
<g id="edge7" class="edge">
<title>q2t&#45;&gt;s2t</title>
<path fill="none" stroke="black" d="M259.73,-215.7C249.5,-206.97 236.94,-196.24 225.82,-186.75"/>
<polygon fill="black" stroke="black" points="227.91,-183.94 218.04,-180.1 223.37,-189.26 227.91,-183.94"/>
</g>
<!-- s2f -->
<g id="node9" class="node">
<title>s2f</title>
<polygon fill="#98f5ff" stroke="transparent" points="478.5,-180 363.5,-180 363.5,-144 478.5,-144 478.5,-180"/>
<text text-anchor="middle" x="421" y="-158.3" font-family="Times,serif" font-size="14.00">⊤ ∧ (⊥ ∨ ¬R)</text>
</g>
<!-- q2f&#45;&gt;s2f -->
<g id="edge8" class="edge">
<title>q2f&#45;&gt;s2f</title>
<path fill="none" stroke="black" d="M421,-215.7C421,-207.98 421,-198.71 421,-190.11"/>
<polygon fill="black" stroke="black" points="424.5,-190.1 421,-180.1 417.5,-190.1 424.5,-190.1"/>
</g>
<!-- r4t -->
<g id="node14" class="node">
<title>r4t</title>
<polygon fill="#caff70" stroke="transparent" points="119.5,-108 62.5,-108 62.5,-72 119.5,-72 119.5,-108"/>
<text text-anchor="middle" x="91" y="-86.3" font-family="Times,serif" font-size="14.00">R → ⊤</text>
</g>
<!-- s2t&#45;&gt;r4t -->
<g id="edge13" class="edge">
<title>s2t&#45;&gt;r4t</title>
<path fill="none" stroke="black" d="M171.82,-143.88C157.96,-134.81 140.76,-123.55 125.79,-113.76"/>
<polygon fill="black" stroke="black" points="127.56,-110.74 117.28,-108.19 123.73,-116.59 127.56,-110.74"/>
</g>
<!-- r4f -->
<g id="node15" class="node">
<title>r4f</title>
<polygon fill="#caff70" stroke="transparent" points="226.5,-108 169.5,-108 169.5,-72 226.5,-72 226.5,-108"/>
<text text-anchor="middle" x="198" y="-86.3" font-family="Times,serif" font-size="14.00">R → ⊥</text>
</g>
<!-- s2t&#45;&gt;r4f -->
<g id="edge14" class="edge">
<title>s2t&#45;&gt;r4f</title>
<path fill="none" stroke="black" d="M198,-143.7C198,-135.98 198,-126.71 198,-118.11"/>
<polygon fill="black" stroke="black" points="201.5,-118.1 198,-108.1 194.5,-118.1 201.5,-118.1"/>
</g>
<!-- r5t -->
<g id="node18" class="node">
<title>r5t</title>
<polygon fill="#caff70" stroke="transparent" points="380.5,-108 323.5,-108 323.5,-72 380.5,-72 380.5,-108"/>
<text text-anchor="middle" x="352" y="-86.3" font-family="Times,serif" font-size="14.00">R → ⊤</text>
</g>
<!-- s2f&#45;&gt;r5t -->
<g id="edge17" class="edge">
<title>s2f&#45;&gt;r5t</title>
<path fill="none" stroke="black" d="M403.94,-143.7C395.5,-135.14 385.18,-124.66 375.96,-115.3"/>
<polygon fill="black" stroke="black" points="378.37,-112.77 368.86,-108.1 373.39,-117.68 378.37,-112.77"/>
</g>
<!-- r5f -->
<g id="node19" class="node">
<title>r5f</title>
<polygon fill="#caff70" stroke="transparent" points="471.5,-108 414.5,-108 414.5,-72 471.5,-72 471.5,-108"/>
<text text-anchor="middle" x="443" y="-86.3" font-family="Times,serif" font-size="14.00">R → ⊥</text>
</g>
<!-- s2f&#45;&gt;r5f -->
<g id="edge18" class="edge">
<title>s2f&#45;&gt;r5f</title>
<path fill="none" stroke="black" d="M426.44,-143.7C428.89,-135.9 431.84,-126.51 434.57,-117.83"/>
<polygon fill="black" stroke="black" points="437.96,-118.69 437.62,-108.1 431.29,-116.59 437.96,-118.69"/>
</g>
<!-- s3t -->
<g id="node12" class="node">
<title>s3t</title>
<polygon fill="#98f5ff" stroke="transparent" points="707.5,-180 592.5,-180 592.5,-144 707.5,-144 707.5,-180"/>
<text text-anchor="middle" x="650" y="-158.3" font-family="Times,serif" font-size="14.00">⊥ ∧ (⊤ ∨ ¬R)</text>
</g>
<!-- q3t&#45;&gt;s3t -->
<g id="edge11" class="edge">
<title>q3t&#45;&gt;s3t</title>
<path fill="none" stroke="black" d="M650,-215.7C650,-207.98 650,-198.71 650,-190.11"/>
<polygon fill="black" stroke="black" points="653.5,-190.1 650,-180.1 646.5,-190.1 653.5,-190.1"/>
</g>
<!-- s3f -->
<g id="node13" class="node">
<title>s3f</title>
<polygon fill="#98f5ff" stroke="transparent" points="945.5,-180 830.5,-180 830.5,-144 945.5,-144 945.5,-180"/>
<text text-anchor="middle" x="888" y="-158.3" font-family="Times,serif" font-size="14.00">⊥ ∧ (⊥ ∨ ¬R)</text>
</g>
<!-- q3f&#45;&gt;s3f -->
<g id="edge12" class="edge">
<title>q3f&#45;&gt;s3f</title>
<path fill="none" stroke="black" d="M827.02,-215.7C837.13,-206.97 849.54,-196.24 860.52,-186.75"/>
<polygon fill="black" stroke="black" points="862.93,-189.29 868.21,-180.1 858.35,-183.99 862.93,-189.29"/>
</g>
<!-- r6t -->
<g id="node22" class="node">
<title>r6t</title>
<polygon fill="#caff70" stroke="transparent" points="656.5,-108 599.5,-108 599.5,-72 656.5,-72 656.5,-108"/>
<text text-anchor="middle" x="628" y="-86.3" font-family="Times,serif" font-size="14.00">R → ⊤</text>
</g>
<!-- s3t&#45;&gt;r6t -->
<g id="edge21" class="edge">
<title>s3t&#45;&gt;r6t</title>
<path fill="none" stroke="black" d="M644.56,-143.7C642.11,-135.9 639.16,-126.51 636.43,-117.83"/>
<polygon fill="black" stroke="black" points="639.71,-116.59 633.38,-108.1 633.04,-118.69 639.71,-116.59"/>
</g>
<!-- r6f -->
<g id="node23" class="node">
<title>r6f</title>
<polygon fill="#caff70" stroke="transparent" points="747.5,-108 690.5,-108 690.5,-72 747.5,-72 747.5,-108"/>
<text text-anchor="middle" x="719" y="-86.3" font-family="Times,serif" font-size="14.00">R → ⊥</text>
</g>
<!-- s3t&#45;&gt;r6f -->
<g id="edge22" class="edge">
<title>s3t&#45;&gt;r6f</title>
<path fill="none" stroke="black" d="M667.06,-143.7C675.5,-135.14 685.82,-124.66 695.04,-115.3"/>
<polygon fill="black" stroke="black" points="697.61,-117.68 702.14,-108.1 692.63,-112.77 697.61,-117.68"/>
</g>
<!-- r7t -->
<g id="node26" class="node">
<title>r7t</title>
<polygon fill="#caff70" stroke="transparent" points="916.5,-108 859.5,-108 859.5,-72 916.5,-72 916.5,-108"/>
<text text-anchor="middle" x="888" y="-86.3" font-family="Times,serif" font-size="14.00">R → ⊤</text>
</g>
<!-- s3f&#45;&gt;r7t -->
<g id="edge25" class="edge">
<title>s3f&#45;&gt;r7t</title>
<path fill="none" stroke="black" d="M888,-143.7C888,-135.98 888,-126.71 888,-118.11"/>
<polygon fill="black" stroke="black" points="891.5,-118.1 888,-108.1 884.5,-118.1 891.5,-118.1"/>
</g>
<!-- r7f -->
<g id="node27" class="node">
<title>r7f</title>
<polygon fill="#caff70" stroke="transparent" points="1022.5,-108 965.5,-108 965.5,-72 1022.5,-72 1022.5,-108"/>
<text text-anchor="middle" x="994" y="-86.3" font-family="Times,serif" font-size="14.00">R → ⊥</text>
</g>
<!-- s3f&#45;&gt;r7f -->
<g id="edge26" class="edge">
<title>s3f&#45;&gt;r7f</title>
<path fill="none" stroke="black" d="M913.93,-143.88C927.66,-134.81 944.71,-123.55 959.54,-113.76"/>
<polygon fill="black" stroke="black" points="961.55,-116.62 967.97,-108.19 957.7,-110.78 961.55,-116.62"/>
</g>
<!-- s4t -->
<g id="node16" class="node">
<title>s4t</title>
<polygon fill="#98f5ff" stroke="transparent" points="120,-36 0,-36 0,0 120,0 120,-36"/>
<text text-anchor="middle" x="60" y="-14.3" font-family="Times,serif" font-size="14.00">⊤ ∧ (⊤ ∨ ¬⊤)</text>
</g>
<!-- r4t&#45;&gt;s4t -->
<g id="edge15" class="edge">
<title>r4t&#45;&gt;s4t</title>
<path fill="none" stroke="black" d="M83.34,-71.7C79.81,-63.73 75.54,-54.1 71.63,-45.26"/>
<polygon fill="black" stroke="black" points="74.82,-43.83 67.57,-36.1 68.42,-46.67 74.82,-43.83"/>
</g>
<!-- s4f -->
<g id="node17" class="node">
<title>s4f</title>
<polygon fill="#98f5ff" stroke="transparent" points="258,-36 138,-36 138,0 258,0 258,-36"/>
<text text-anchor="middle" x="198" y="-14.3" font-family="Times,serif" font-size="14.00">⊤ ∧ (⊤ ∨ ¬⊥)</text>
</g>
<!-- r4f&#45;&gt;s4f -->
<g id="edge16" class="edge">
<title>r4f&#45;&gt;s4f</title>
<path fill="none" stroke="black" d="M198,-71.7C198,-63.98 198,-54.71 198,-46.11"/>
<polygon fill="black" stroke="black" points="201.5,-46.1 198,-36.1 194.5,-46.1 201.5,-46.1"/>
</g>
<!-- s5t -->
<g id="node20" class="node">
<title>s5t</title>
<polygon fill="#98f5ff" stroke="transparent" points="396,-36 276,-36 276,0 396,0 396,-36"/>
<text text-anchor="middle" x="336" y="-14.3" font-family="Times,serif" font-size="14.00">⊤ ∧ (⊥ ∨ ¬⊤)</text>
</g>
<!-- r5t&#45;&gt;s5t -->
<g id="edge19" class="edge">
<title>r5t&#45;&gt;s5t</title>
<path fill="none" stroke="black" d="M348.04,-71.7C346.28,-63.98 344.16,-54.71 342.2,-46.11"/>
<polygon fill="black" stroke="black" points="345.55,-45.07 339.91,-36.1 338.73,-46.63 345.55,-45.07"/>
</g>
<!-- s5f -->
<g id="node21" class="node">
<title>s5f</title>
<polygon fill="#98f5ff" stroke="transparent" points="534,-36 414,-36 414,0 534,0 534,-36"/>
<text text-anchor="middle" x="474" y="-14.3" font-family="Times,serif" font-size="14.00">⊤ ∧ (⊥ ∨ ¬⊥)</text>
</g>
<!-- r5f&#45;&gt;s5f -->
<g id="edge20" class="edge">
<title>r5f&#45;&gt;s5f</title>
<path fill="none" stroke="black" d="M450.66,-71.7C454.19,-63.73 458.46,-54.1 462.37,-45.26"/>
<polygon fill="black" stroke="black" points="465.58,-46.67 466.43,-36.1 459.18,-43.83 465.58,-46.67"/>
</g>
<!-- s6t -->
<g id="node24" class="node">
<title>s6t</title>
<polygon fill="#98f5ff" stroke="transparent" points="672,-36 552,-36 552,0 672,0 672,-36"/>
<text text-anchor="middle" x="612" y="-14.3" font-family="Times,serif" font-size="14.00">⊥ ∧ (⊤ ∨ ¬⊤)</text>
</g>
<!-- r6t&#45;&gt;s6t -->
<g id="edge23" class="edge">
<title>r6t&#45;&gt;s6t</title>
<path fill="none" stroke="black" d="M624.04,-71.7C622.28,-63.98 620.16,-54.71 618.2,-46.11"/>
<polygon fill="black" stroke="black" points="621.55,-45.07 615.91,-36.1 614.73,-46.63 621.55,-45.07"/>
</g>
<!-- s6f -->
<g id="node25" class="node">
<title>s6f</title>
<polygon fill="#98f5ff" stroke="transparent" points="810,-36 690,-36 690,0 810,0 810,-36"/>
<text text-anchor="middle" x="750" y="-14.3" font-family="Times,serif" font-size="14.00">⊥ ∧ (⊤ ∨ ¬⊥)</text>
</g>
<!-- r6f&#45;&gt;s6f -->
<g id="edge24" class="edge">
<title>r6f&#45;&gt;s6f</title>
<path fill="none" stroke="black" d="M726.66,-71.7C730.19,-63.73 734.46,-54.1 738.37,-45.26"/>
<polygon fill="black" stroke="black" points="741.58,-46.67 742.43,-36.1 735.18,-43.83 741.58,-46.67"/>
</g>
<!-- s7t -->
<g id="node28" class="node">
<title>s7t</title>
<polygon fill="#98f5ff" stroke="transparent" points="948,-36 828,-36 828,0 948,0 948,-36"/>
<text text-anchor="middle" x="888" y="-14.3" font-family="Times,serif" font-size="14.00">⊥ ∧ (⊥ ∨ ¬⊤)</text>
</g>
<!-- r7t&#45;&gt;s7t -->
<g id="edge27" class="edge">
<title>r7t&#45;&gt;s7t</title>
<path fill="none" stroke="black" d="M888,-71.7C888,-63.98 888,-54.71 888,-46.11"/>
<polygon fill="black" stroke="black" points="891.5,-46.1 888,-36.1 884.5,-46.1 891.5,-46.1"/>
</g>
<!-- s7f -->
<g id="node29" class="node">
<title>s7f</title>
<polygon fill="#98f5ff" stroke="transparent" points="1086,-36 966,-36 966,0 1086,0 1086,-36"/>
<text text-anchor="middle" x="1026" y="-14.3" font-family="Times,serif" font-size="14.00">⊥ ∧ (⊥ ∨ ¬⊥)</text>
</g>
<!-- r7f&#45;&gt;s7f -->
<g id="edge28" class="edge">
<title>r7f&#45;&gt;s7f</title>
<path fill="none" stroke="black" d="M1001.91,-71.7C1005.55,-63.73 1009.95,-54.1 1013.99,-45.26"/>
<polygon fill="black" stroke="black" points="1017.21,-46.65 1018.18,-36.1 1010.84,-43.74 1017.21,-46.65"/>
</g>
</g>
</svg>
