<?xml version="1.0" encoding="UTF-8" standalone="no"?>
<!DOCTYPE svg PUBLIC "-//W3C//DTD SVG 1.1//EN"
 "http://www.w3.org/Graphics/SVG/1.1/DTD/svg11.dtd">
<!-- Generated by graphviz version 12.2.1 (20241206.2353)
 -->
<!-- Title: G Pages: 1 -->
<svg width="366pt" height="260pt"
 viewBox="0.00 0.00 366.17 260.00" xmlns="http://www.w3.org/2000/svg" xmlns:xlink="http://www.w3.org/1999/xlink">
<g id="graph0" class="graph" transform="scale(1 1) rotate(0) translate(4 256)">
<title>G</title>
<polygon fill="white" stroke="none" points="-4,4 -4,-256 362.17,-256 362.17,4 -4,4"/>
<!-- b -->
<g id="node1" class="node">
<title>b</title>
<path fill="lightsalmon" stroke="black" d="M210.42,-32.73C210.42,-34.53 198.32,-36 183.42,-36 168.53,-36 156.42,-34.53 156.42,-32.73 156.42,-32.73 156.42,-3.27 156.42,-3.27 156.42,-1.47 168.53,0 183.42,0 198.32,0 210.42,-1.47 210.42,-3.27 210.42,-3.27 210.42,-32.73 210.42,-32.73"/>
<path fill="none" stroke="black" d="M210.42,-32.73C210.42,-30.92 198.32,-29.45 183.42,-29.45 168.53,-29.45 156.42,-30.92 156.42,-32.73"/>
<text text-anchor="middle" x="183.42" y="-12.95" font-family="Times,serif" font-size="14.00">boxes</text>
</g>
<!-- p -->
<g id="node2" class="node">
<title>p</title>
<path fill="lightsalmon" stroke="black" d="M106.42,-32.73C106.42,-34.53 94.32,-36 79.42,-36 64.53,-36 52.42,-34.53 52.42,-32.73 52.42,-32.73 52.42,-3.27 52.42,-3.27 52.42,-1.47 64.53,0 79.42,0 94.32,0 106.42,-1.47 106.42,-3.27 106.42,-3.27 106.42,-32.73 106.42,-32.73"/>
<path fill="none" stroke="black" d="M106.42,-32.73C106.42,-30.92 94.32,-29.45 79.42,-29.45 64.53,-29.45 52.42,-30.92 52.42,-32.73"/>
<text text-anchor="middle" x="79.42" y="-12.95" font-family="Times,serif" font-size="14.00">pallets</text>
</g>
<!-- c -->
<g id="node3" class="node">
<title>c</title>
<path fill="lightsalmon" stroke="black" d="M358.17,-104.73C358.17,-106.53 342.15,-108 322.42,-108 302.7,-108 286.67,-106.53 286.67,-104.73 286.67,-104.73 286.67,-75.27 286.67,-75.27 286.67,-73.47 302.7,-72 322.42,-72 342.15,-72 358.17,-73.47 358.17,-75.27 358.17,-75.27 358.17,-104.73 358.17,-104.73"/>
<path fill="none" stroke="black" d="M358.17,-104.73C358.17,-102.92 342.15,-101.45 322.42,-101.45 302.7,-101.45 286.67,-102.92 286.67,-104.73"/>
<text text-anchor="middle" x="322.42" y="-84.95" font-family="Times,serif" font-size="14.00">containers</text>
</g>
<!-- ppm -->
<g id="node4" class="node">
<title>ppm</title>
<polygon fill="aquamarine" stroke="black" points="144.42,-108 14.42,-108 14.42,-72 144.42,-72 144.42,-108"/>
<text text-anchor="middle" x="79.42" y="-84.95" font-family="Times,serif" font-size="14.00">pallet_payload_mass</text>
</g>
<!-- ppm&#45;&gt;b -->
<g id="edge1" class="edge">
<title>ppm&#45;&gt;b</title>
<path fill="none" stroke="black" d="M105.4,-71.52C118.79,-62.5 135.29,-51.4 149.66,-41.72"/>
<polygon fill="black" stroke="black" points="151.61,-44.63 157.95,-36.15 147.7,-38.83 151.61,-44.63"/>
</g>
<!-- ppm&#45;&gt;p -->
<g id="edge2" class="edge">
<title>ppm&#45;&gt;p</title>
<path fill="none" stroke="black" d="M79.42,-71.7C79.42,-64.41 79.42,-55.73 79.42,-47.54"/>
<polygon fill="black" stroke="black" points="82.92,-47.62 79.42,-37.62 75.92,-47.62 82.92,-47.62"/>
</g>
<!-- pc -->
<g id="node5" class="node">
<title>pc</title>
<polygon fill="aquamarine" stroke="black" points="126.3,-180 22.55,-180 22.55,-144 126.3,-144 126.3,-180"/>
<text text-anchor="middle" x="74.42" y="-156.95" font-family="Times,serif" font-size="14.00">pallet_clearance</text>
</g>
<!-- pc&#45;&gt;p -->
<g id="edge3" class="edge">
<title>pc&#45;&gt;p</title>
<path fill="none" stroke="black" d="M40.23,-143.73C26.79,-135 12.84,-123.04 5.42,-108 -1.65,-93.65 -1.89,-86.23 5.42,-72 13.35,-56.58 28.06,-44.65 42.3,-36.04"/>
<polygon fill="black" stroke="black" points="43.66,-39.29 50.67,-31.35 40.24,-33.19 43.66,-39.29"/>
</g>
<!-- pc&#45;&gt;ppm -->
<g id="edge4" class="edge">
<title>pc&#45;&gt;ppm</title>
<path fill="none" stroke="black" d="M75.66,-143.7C76.18,-136.41 76.8,-127.73 77.39,-119.54"/>
<polygon fill="black" stroke="black" points="80.87,-119.84 78.09,-109.61 73.89,-119.34 80.87,-119.84"/>
</g>
<!-- pwm -->
<g id="node6" class="node">
<title>pwm</title>
<polygon fill="aquamarine" stroke="black" points="268.8,-108 162.05,-108 162.05,-72 268.8,-72 268.8,-108"/>
<text text-anchor="middle" x="215.42" y="-84.95" font-family="Times,serif" font-size="14.00">pallet_wet_mass</text>
</g>
<!-- pwm&#45;&gt;b -->
<g id="edge6" class="edge">
<title>pwm&#45;&gt;b</title>
<path fill="none" stroke="black" d="M207.51,-71.7C204.03,-64.07 199.84,-54.92 195.95,-46.4"/>
<polygon fill="black" stroke="black" points="199.21,-45.12 191.87,-37.48 192.85,-48.03 199.21,-45.12"/>
</g>
<!-- pwm&#45;&gt;p -->
<g id="edge5" class="edge">
<title>pwm&#45;&gt;p</title>
<path fill="none" stroke="black" d="M181.46,-71.52C161.76,-61.38 136.93,-48.6 116.7,-38.18"/>
<polygon fill="black" stroke="black" points="118.42,-35.14 107.93,-33.67 115.22,-41.36 118.42,-35.14"/>
</g>
<!-- cpm -->
<g id="node7" class="node">
<title>cpm</title>
<polygon fill="aquamarine" stroke="black" points="294.55,-180 144.3,-180 144.3,-144 294.55,-144 294.55,-180"/>
<text text-anchor="middle" x="219.42" y="-156.95" font-family="Times,serif" font-size="14.00">container_payload_mass</text>
</g>
<!-- cpm&#45;&gt;c -->
<g id="edge7" class="edge">
<title>cpm&#45;&gt;c</title>
<path fill="none" stroke="black" d="M245.15,-143.52C258.22,-134.63 274.28,-123.72 288.36,-114.15"/>
<polygon fill="black" stroke="black" points="290.18,-117.15 296.48,-108.63 286.25,-111.36 290.18,-117.15"/>
</g>
<!-- cpm&#45;&gt;pwm -->
<g id="edge8" class="edge">
<title>cpm&#45;&gt;pwm</title>
<path fill="none" stroke="black" d="M218.44,-143.7C218.02,-136.41 217.52,-127.73 217.05,-119.54"/>
<polygon fill="black" stroke="black" points="220.55,-119.4 216.49,-109.62 213.56,-119.8 220.55,-119.4"/>
</g>
<!-- cc -->
<g id="node8" class="node">
<title>cc</title>
<polygon fill="aquamarine" stroke="black" points="281.42,-252 157.42,-252 157.42,-216 281.42,-216 281.42,-252"/>
<text text-anchor="middle" x="219.42" y="-228.95" font-family="Times,serif" font-size="14.00">container_clearance</text>
</g>
<!-- cc&#45;&gt;c -->
<g id="edge9" class="edge">
<title>cc&#45;&gt;c</title>
<path fill="none" stroke="black" d="M260.5,-215.65C276.15,-207.09 292.77,-195.27 303.42,-180 315.73,-162.35 320.32,-138.3 321.92,-119.65"/>
<polygon fill="black" stroke="black" points="325.41,-119.99 322.51,-109.8 318.42,-119.58 325.41,-119.99"/>
</g>
<!-- cc&#45;&gt;pc -->
<g id="edge11" class="edge">
<title>cc&#45;&gt;pc</title>
<path fill="none" stroke="black" d="M183.21,-215.52C164.28,-206.38 140.9,-195.09 120.68,-185.33"/>
<polygon fill="black" stroke="black" points="122.32,-182.24 111.79,-181.04 119.28,-188.54 122.32,-182.24"/>
</g>
<!-- cc&#45;&gt;cpm -->
<g id="edge10" class="edge">
<title>cc&#45;&gt;cpm</title>
<path fill="none" stroke="black" d="M219.42,-215.7C219.42,-208.41 219.42,-199.73 219.42,-191.54"/>
<polygon fill="black" stroke="black" points="222.92,-191.62 219.42,-181.62 215.92,-191.62 222.92,-191.62"/>
</g>
</g>
</svg>
